<?xml version="1.0" encoding="UTF-8"?>
<svg id="Layer_1" data-name="Layer 1" xmlns="http://www.w3.org/2000/svg" viewBox="0 0 48 48">
  <defs>
    <style>
      .cls-1 {
        fill: #624f41;
      }
    </style>
  </defs>
  <path class="cls-1" d="M16.5,5c-6.33,0-11.5,5.17-11.5,11.5v15c0,6.33,5.17,11.5,11.5,11.5h15c6.33,0,11.5-5.17,11.5-11.5v-15c0-6.33-5.17-11.5-11.5-11.5h-15ZM16.5,8h15c4.71,0,8.5,3.79,8.5,8.5v15c0,4.71-3.79,8.5-8.5,8.5h-15c-4.71,0-8.5-3.79-8.5-8.5v-15c0-4.71,3.79-8.5,8.5-8.5Z"/>
  <path class="cls-1" d="M27.45,20.17c0-.55.42-.97.97-.97h2.33c1.25,0,2.29-1.04,2.29-2.29v-3.67c0-1.18-.91-2.18-2.08-2.28h0c-.23-.02-1.81-.15-3.8-.15-2.63,0-4.86.81-6.37,2.45-1.5,1.63-2.21,3.97-2.21,6.75v2.81h-2.79c-1.55,0-2.82,1.29-2.81,2.83l.02,2.41h0c.02,1.53,1.28,2.78,2.81,2.78h2.77s0,10.77,0,10.77h2.41v-11.98c0-.66-.54-1.2-1.2-1.2h-3.97s0,0,0,0c-.23,0-.4-.16-.4-.4l-.02-2.41c0-.24.16-.4.4-.4h4c.66,0,1.2-.54,1.2-1.2v-4.01c0-2.38.59-4.04,1.57-5.12.99-1.07,2.44-1.67,4.6-1.67,1.83,0,3.47.13,3.48.13v3.44h-2.22c-1.85,0-3.38,1.52-3.38,3.38l-.05,3.84c0,.66.52,1.21,1.19,1.22,0,0,.01,0,.02,0h3.97c.26,0,.43.19.4.45l-.28,2.41c-.02.21-.19.36-.4.36h-3.69c-.66,0-1.2.54-1.2,1.2v11.98h2.41v-10.77h2.48c1.42,0,2.62-1.08,2.79-2.48l.28-2.41c.19-1.65-1.13-3.13-2.79-3.13h-2.75l.03-2.64s0-.01,0-.02Z"/>
</svg>