<svg width="1467" height="309" viewBox="0 0 1467 309" fill="none" xmlns="http://www.w3.org/2000/svg">
<path d="M1125.09 28.0791H1225.53" stroke="#624F41"/>
<path d="M1241.46 177.557H1234.22" stroke="#624F41"/>
<path d="M1244.36 120.149H1222.15" stroke="#624F41"/>
<path d="M1224.08 104.624H1202.35" stroke="#624F41"/>
<path d="M1244.36 110.401H1222.63" stroke="#624F41"/>
<path d="M1243.4 75.0167H1466" stroke="#624F41"/>
<path d="M1244.84 144.701H1465.52" stroke="#624F41"/>
<path d="M1244.84 148.673H1465.52" stroke="#624F41"/>
<path d="M1244.84 153.005H1465.03" stroke="#624F41"/>
<path d="M1266.33 158.06H1279.13V166.725M1266.33 158.06H1253.54V166.725M1266.33 158.06V184.417M1266.33 184.417H1253.54V174.669M1266.33 184.417H1279.13V174.669M1279.13 166.725H1253.54M1279.13 166.725V174.669M1253.54 166.725V174.669M1253.54 174.669H1279.13M1320.41 158.06H1333.21V166.725M1320.41 158.06H1307.62V166.725M1320.41 158.06V166.725M1320.41 184.417H1307.62V174.669M1320.41 184.417H1333.21V174.669M1320.41 184.417V174.669M1320.41 166.725V174.669M1320.41 166.725H1333.21M1320.41 166.725H1307.62M1320.41 174.669H1307.62M1320.41 174.669H1333.21M1333.21 166.725V174.669M1307.62 166.725V174.669M1266.33 205.359H1279.13V214.024M1266.33 205.359H1253.54V214.024M1266.33 205.359V214.024M1266.33 231.716H1253.54V221.967M1266.33 231.716H1279.13V221.967M1266.33 231.716V221.967M1266.33 214.024V221.967M1266.33 214.024H1279.13M1266.33 214.024H1253.54M1266.33 221.967H1253.54M1266.33 221.967H1279.13M1279.13 214.024V221.967M1253.54 214.024V221.967M1320.41 205.359H1333.21V214.024M1320.41 205.359H1307.62V214.024M1320.41 205.359V214.024M1320.41 231.716H1307.62V221.967M1320.41 231.716H1333.21V221.967M1320.41 231.716V221.967M1320.41 214.024V221.967M1320.41 214.024H1333.21M1320.41 214.024H1307.62M1320.41 221.967H1307.62M1320.41 221.967H1333.21M1333.21 214.024V221.967M1307.62 214.024V221.967M1373.53 158.06H1386.33V166.725M1373.53 158.06H1360.73V166.725M1373.53 158.06V166.725M1373.53 184.417H1360.73V174.669M1373.53 184.417H1386.33V174.669M1373.53 184.417V174.669M1373.53 166.725V174.669M1373.53 166.725H1386.33M1373.53 166.725H1360.73M1373.53 174.669H1360.73M1373.53 174.669H1386.33M1386.33 166.725V174.669M1360.73 166.725V174.669M1426.65 158.06H1439.44V166.725M1426.65 158.06H1413.85V166.725M1426.65 158.06V166.725M1426.65 184.417H1413.85V174.669M1426.65 184.417H1439.44V174.669M1426.65 184.417V174.669M1426.65 166.725V174.669M1426.65 166.725H1439.44M1426.65 166.725H1413.85M1426.65 174.669H1413.85M1426.65 174.669H1439.44M1439.44 166.725V174.669M1413.85 166.725V174.669M1373.53 205.359H1386.33V214.024M1373.53 205.359H1360.73V214.024M1373.53 205.359V214.024M1373.53 231.716H1360.73V221.967M1373.53 231.716H1386.33V221.967M1373.53 231.716V221.967M1373.53 214.024V221.967M1373.53 214.024H1386.33M1373.53 214.024H1360.73M1373.53 221.967H1360.73M1373.53 221.967H1386.33M1386.33 214.024V221.967M1360.73 214.024V221.967M1426.65 205.359H1439.44V214.024M1426.65 205.359H1413.85V214.024M1426.65 205.359V214.024M1426.65 231.716H1413.85V221.967M1426.65 231.716H1439.44V221.967M1426.65 231.716V221.967M1426.65 214.024V221.967M1426.65 214.024H1439.44M1426.65 214.024H1413.85M1426.65 221.967H1413.85M1426.65 221.967H1439.44M1439.44 214.024V221.967M1413.85 214.024V221.967M190.011 204.637H202.807V213.302M190.011 204.637H177.214V213.302M190.011 204.637V213.302M190.011 230.994H177.214V221.245M190.011 230.994H202.807V221.245M190.011 230.994V221.245M190.011 213.302V221.245M190.011 213.302H202.807M190.011 213.302H177.214M190.011 221.245H177.214M190.011 221.245H202.807M202.807 213.302V221.245M177.214 213.302V221.245M190.011 158.782H202.807V167.448M190.011 158.782H177.214V167.448M190.011 158.782V167.448M190.011 185.139H177.214V175.391M190.011 185.139H202.807V175.391M190.011 185.139V175.391M190.011 167.448V175.391M190.011 167.448H202.807M190.011 167.448H177.214M190.011 175.391H177.214M190.011 175.391H202.807M202.807 167.448V175.391M177.214 167.448V175.391M135.929 158.782H148.725V167.448M135.929 158.782H123.133V167.448M135.929 158.782V167.448M135.929 185.139H123.133V175.391M135.929 185.139H148.725V175.391M135.929 185.139V175.391M135.929 167.448V175.391M135.929 167.448H148.725M135.929 167.448H123.133M135.929 175.391H123.133M135.929 175.391H148.725M148.725 167.448V175.391M123.133 167.448V175.391M135.929 204.637H148.725V213.302M135.929 204.637H123.133V213.302M135.929 204.637V213.302M135.929 230.994H123.133V221.245M135.929 230.994H148.725V221.245M135.929 230.994V221.245M135.929 213.302V221.245M135.929 213.302H148.725M135.929 213.302H123.133M135.929 221.245H123.133M135.929 221.245H148.725M148.725 213.302V221.245M123.133 213.302V221.245M135.929 254.462H148.725V263.128M135.929 254.462H123.133V263.128M135.929 254.462V263.128M135.929 280.82H123.133V271.071M135.929 280.82H148.725V271.071M135.929 280.82V271.071M135.929 263.128V271.071M135.929 263.128H148.725M135.929 263.128H123.133M135.929 271.071H123.133M135.929 271.071H148.725M148.725 263.128V271.071M123.133 263.128V271.071M83.7787 158.782H96.5748V167.448M83.7787 158.782H70.9826V167.448M83.7787 158.782V167.448M83.7787 185.139H70.9826V175.391M83.7787 185.139H96.5748V175.391M83.7787 185.139V175.391M83.7787 167.448V175.391M83.7787 167.448H96.5748M83.7787 167.448H70.9826M83.7787 175.391H70.9826M83.7787 175.391H96.5748M96.5748 167.448V175.391M70.9826 167.448V175.391M83.7787 204.637H96.5748V213.302M83.7787 204.637H70.9826V213.302M83.7787 204.637V213.302M83.7787 230.994H70.9826V221.245M83.7787 230.994H96.5748V221.245M83.7787 230.994V221.245M83.7787 213.302V221.245M83.7787 213.302H96.5748M83.7787 213.302H70.9826M83.7787 221.245H70.9826M83.7787 221.245H96.5748M96.5748 213.302V221.245M70.9826 213.302V221.245M30.6628 158.782H43.4589V167.448M30.6628 158.782H17.8667V167.448M30.6628 158.782V167.448M30.6628 185.139H17.8667V175.391M30.6628 185.139H43.4589V175.391M30.6628 185.139V175.391M30.6628 167.448V175.391M30.6628 167.448H43.4589M30.6628 167.448H17.8667M30.6628 175.391H17.8667M30.6628 175.391H43.4589M43.4589 167.448V175.391M17.8667 167.448V175.391M30.6628 204.637H43.4589V213.302M30.6628 204.637H17.8667V213.302M30.6628 204.637V213.302M30.6628 230.994H17.8667V221.245M30.6628 230.994H43.4589V221.245M30.6628 230.994V221.245M30.6628 213.302V221.245M30.6628 213.302H43.4589M30.6628 213.302H17.8667M30.6628 221.245H17.8667M30.6628 221.245H43.4589M43.4589 213.302V221.245M17.8667 213.302V221.245M30.6628 254.462H43.4589V263.128M30.6628 254.462H17.8667V263.128M30.6628 254.462V263.128M30.6628 280.82H17.8667V271.071M30.6628 280.82H43.4589V271.071M30.6628 280.82V271.071M30.6628 263.128V271.071M30.6628 263.128H43.4589M30.6628 263.128H17.8667M30.6628 271.071H17.8667M30.6628 271.071H43.4589M43.4589 263.128V271.071M17.8667 263.128V271.071M83.7787 254.462H96.5748V263.128M83.7787 254.462H70.9826V263.128M83.7787 254.462V263.128M83.7787 280.82H70.9826V271.071M83.7787 280.82H96.5748V271.071M83.7787 280.82V271.071M83.7787 263.128V271.071M83.7787 263.128H96.5748M83.7787 263.128H70.9826M83.7787 271.071H70.9826M83.7787 271.071H96.5748M96.5748 263.128V271.071M70.9826 263.128V271.071M297.45 279.737V304.288M1243.88 254.101L1247.74 256.629H1344.8L1356.87 252.296C1343.03 249.167 1314.18 242.909 1309.55 242.909H1289.27C1274.46 246.158 1244.65 252.946 1243.88 254.101Z" stroke="#624F41"/>
<path d="M331.733 279.737V304.289" stroke="#624F41"/>
<path d="M353.463 279.737V304.289" stroke="#624F41"/>
<path d="M387.747 279.737V304.289" stroke="#624F41"/>
<path d="M413.339 279.737V303.928" stroke="#624F41"/>
<path d="M447.623 279.737V304.289" stroke="#624F41"/>
<path d="M173.351 300.678V255.546H206.186V300.678" stroke="#624F41"/>
<path d="M175.766 264.933V300.678" stroke="#624F41"/>
<path d="M175.766 264.933H203.772V301.039" stroke="#624F41"/>
<path d="M183.492 275.043V270.349H197.013V275.043H183.492Z" stroke="#624F41"/>
<path d="M222.604 127.731H226.467V125.204V159.143H231.779H234.193V169.614V127.731H231.779V125.204" stroke="#624F41"/>
<path d="M240.471 111.484H243.851V108.595V126.287H252.543V111.484M252.543 111.484H249.645V108.595M252.543 111.484V133.869" stroke="#624F41"/>
<path d="M265.58 92.7089V95.5973M265.58 95.5973H262.2M265.58 95.5973V126.287H274.272V136.036V95.5973H270.892V92.7089" stroke="#624F41"/>
<path d="M280.549 78.9884H284.412V76.822V135.674" stroke="#624F41"/>
<path d="M289.723 76.822V78.9884H292.62V135.313" stroke="#624F41"/>
<path d="M298.898 65.2682H302.761V62.3798V85.8485H308.073" stroke="#624F41"/>
<path d="M312.419 130.259V65.9903H307.59V62.0187" stroke="#624F41"/>
<path d="M318.696 49.3817H323.042V46.8542V78.6273H330.285V49.3817M330.285 49.3817H327.388V46.8542M330.285 49.3817V87.2927" stroke="#624F41"/>
<path d="M331.25 121.232V135.313" stroke="#624F41"/>
<path d="M338.494 121.232V134.591" stroke="#624F41"/>
<path d="M342.357 29.8846V33.1342H338.976V86.2097" stroke="#624F41"/>
<path d="M339.459 78.9885H346.702V32.7731M346.702 30.2457V32.7731M346.702 32.7731H349.6" stroke="#624F41"/>
<path d="M1264.16 248.325V243.631H1268.99V247.602" stroke="#624F41"/>
<path d="M1250.16 301.4V256.99H1282.99V301.4M1250.16 301.4H1253.05M1250.16 301.4C1246.49 301.4 1245.09 304.529 1244.84 306.094H1287.82C1290.52 305.805 1285.73 302.844 1282.99 301.4M1282.99 301.4H1280.58M1253.05 301.4V266.016H1280.58V301.4M1253.05 301.4H1256.43M1280.58 301.4H1277.2M1277.2 301.4H1256.43M1277.2 301.4V293.457M1256.43 301.4V293.457M1256.43 291.29H1277.2M1256.43 291.29V293.457M1256.43 291.29V285.514M1277.2 291.29V293.457M1277.2 291.29V285.514M1277.2 293.457H1256.43M1256.43 285.514H1277.2M1256.43 285.514V282.625M1277.2 285.514V282.625M1277.2 282.625H1256.43M1277.2 282.625V277.57M1256.43 282.625V277.57M1256.43 275.223V267.822H1277.2V275.223M1256.43 275.223H1277.2M1256.43 275.223V277.57M1277.2 275.223V277.57M1277.2 277.57H1256.43" stroke="#624F41"/>
<path d="M961.556 182.555C961.63 182.114 963.336 181.056 963.854 180.746C964.819 180.169 965.526 179.263 966.394 178.576C968.037 177.276 970.008 175.629 971.178 174.054C971.865 173.13 973.053 172.578 973.892 171.794C974.564 171.166 975.619 170.165 976.553 169.754C977.535 169.322 978.294 168.392 979.079 167.805C979.643 167.383 980.56 166.796 980.907 166.277" stroke="#624F41" stroke-linecap="round"/>
<path d="M1241.95 302.844H1246.78" stroke="#624F41"/>
<path d="M1286.85 303.205H1298.44" stroke="#624F41"/>
<path d="M1302.31 303.205H1351.08" stroke="#624F41"/>
<path d="M1397.91 303.566H1465.52" stroke="#624F41"/>
<path d="M1252.83 263.209C1252.83 262.645 1252.74 262.084 1252.74 261.506C1252.74 261.252 1252.67 260.936 1252.74 260.688C1252.82 260.437 1252.98 260.199 1253 259.935C1253.03 259.574 1253.38 258.925 1253.72 258.641C1253.88 258.508 1254.34 258.292 1254.4 258.131C1254.45 257.988 1254.72 257.709 1254.93 257.709" stroke="#624F41" stroke-linecap="round"/>
<path d="M1253.09 263.209C1255.17 263.209 1257.26 263.209 1259.3 263.209C1261.43 263.209 1263.52 263.143 1265.65 263.143C1268.48 263.143 1271.34 263.209 1274.15 263.209C1275.09 263.209 1276.1 263.274 1276.99 263.274C1277.44 263.274 1277.89 263.339 1278.3 263.339C1278.56 263.339 1279.39 263.547 1279.53 263.339" stroke="#624F41" stroke-linecap="round"/>
<path d="M1280.05 263.34C1280.05 263.009 1280.32 262.726 1280.32 262.39C1280.32 262.059 1280.4 261.675 1280.4 261.31C1280.4 260.923 1280.14 260.595 1280.14 260.23C1280.14 259.896 1279.7 259.606 1279.7 259.281" stroke="#624F41" stroke-linecap="round"/>
<path d="M1272.26 257.84C1272.26 258.325 1272.42 258.739 1272.86 259.099C1273.06 259.271 1273.3 259.473 1273.58 259.593C1273.79 259.687 1274.12 259.753 1274.3 259.855C1274.81 260.162 1275.41 259.358 1275.41 259.084C1275.41 258.681 1275.56 258.059 1275.33 257.709" stroke="#624F41" stroke-linecap="round"/>
<path d="M1265.61 257.906C1265.61 258.196 1265.4 259.21 1265.78 259.36C1266.08 259.478 1266.27 259.608 1266.62 259.608C1266.97 259.608 1267.22 259.49 1267.53 259.477C1267.88 259.463 1269.06 259.368 1269.11 259.019C1269.16 258.73 1269.44 257.801 1269.02 257.644" stroke="#624F41" stroke-linecap="round"/>
<path d="M1258.08 257.578C1258.08 258.052 1257.94 258.654 1258.43 259.019C1258.57 259.128 1259.07 259.346 1259.26 259.346C1259.56 259.346 1259.86 259.595 1260.18 259.608C1260.45 259.619 1260.9 259.665 1261.1 259.542C1261.32 259.408 1261.27 259.111 1261.43 258.968C1261.78 258.641 1261.84 257.93 1261.84 257.513" stroke="#624F41" stroke-linecap="round"/>
<path d="M1261.76 262.816C1261.76 262.423 1261.76 262.03 1261.76 261.637C1261.76 261.31 1261.91 260.985 1261.93 260.655C1261.97 260.12 1263.1 259.87 1263.68 259.87C1263.96 259.87 1264.73 259.774 1264.93 259.921C1265.2 260.126 1265.5 260.363 1265.52 260.655C1265.54 260.932 1265.61 261.261 1265.61 261.572C1265.61 261.736 1265.63 262.429 1265.78 262.488" stroke="#624F41" stroke-linecap="round"/>
<path d="M1268.67 262.815C1268.67 262.444 1268.67 262.074 1268.67 261.703C1268.67 261.48 1268.56 260.799 1268.8 260.655C1268.91 260.591 1268.91 260.419 1269.07 260.328C1269.23 260.231 1269.33 260.141 1269.55 260.131C1269.94 260.114 1270.43 259.87 1270.82 259.87C1271.34 259.87 1271.71 259.857 1272.13 260.102C1272.46 260.296 1272.52 260.691 1272.52 260.982C1272.52 261.345 1272.7 261.692 1272.7 262.063C1272.7 262.279 1272.71 262.95 1272.7 262.946" stroke="#624F41" stroke-linecap="round"/>
<path d="M1276.12 262.619C1276.12 262.058 1276.18 261.523 1276.37 261.012C1276.45 260.82 1276.32 260.513 1276.6 260.393C1276.82 260.3 1277.37 260.263 1277.6 260.263C1277.82 260.263 1278.37 260.104 1278.55 260.212C1278.68 260.293 1278.87 260.402 1278.97 260.51C1279.07 260.625 1279.03 260.819 1279.14 260.914C1279.34 261.094 1279.27 261.511 1279.27 261.736C1279.27 262.161 1279.27 262.587 1279.27 263.012" stroke="#624F41" stroke-linecap="round"/>
<path d="M1254.4 262.75C1254.4 261.974 1254.49 261.182 1254.49 260.426C1254.49 259.973 1254.96 259.917 1255.35 259.659C1255.7 259.42 1256.16 259.477 1256.63 259.477C1257.02 259.477 1257.72 259.559 1257.82 259.903C1257.9 260.181 1258.19 260.593 1258.41 260.801C1258.69 261.061 1258.61 261.448 1258.82 261.736C1259.05 262.04 1258.75 262.503 1258.95 262.816" stroke="#624F41" stroke-linecap="round"/>
<path d="M1298.93 263.128V308.26H1306.17L1305.2 306.094H1301.82L1302.59 265.294M1298.93 263.128V254.824C1298.93 254.102 1299.31 252.657 1300.86 252.657C1301.5 252.537 1302.79 252.802 1302.79 254.824L1302.63 263.128M1298.93 263.128L1282.51 253.38L1281.06 254.824L1298.44 265.294L1271.4 253.38L1270.44 254.824L1298.44 266.739M1302.63 263.128L1317.28 253.38L1319.21 254.824L1302.59 265.294M1302.63 263.128L1302.59 265.294M1302.59 265.294L1327.9 253.38L1329.35 254.824L1302.79 266.739M1355.42 301.4V255.546L1361.22 252.657H1385.84L1393.09 255.546L1394.05 301.4M1355.42 301.4H1352.04L1350.11 305.733H1398.4L1396.47 301.4H1394.05M1355.42 301.4H1372.81M1394.05 301.4H1376.19M1372.81 263.128H1356.87V256.268L1361.22 254.102H1385.36L1391.64 256.268V263.128H1376.19M1372.81 263.128V301.4M1372.81 263.128H1376.19M1372.81 301.4H1376.19M1376.19 301.4V263.128M1358.32 266.378V271.432H1369.91V266.378H1358.32ZM1358.32 273.96V279.015H1369.91V273.96H1358.32ZM1358.32 281.181V286.236H1369.91V281.181H1358.32ZM1358.32 288.402V293.457H1369.91V288.402H1358.32ZM1379.08 266.378V271.432H1390.67V266.378H1379.08ZM1379.08 273.96V279.015H1390.67V273.96H1379.08ZM1379.08 281.181V286.236H1390.67V281.181H1379.08ZM1379.08 288.402V293.457H1390.67V288.402H1379.08Z" stroke="#624F41"/>
<path d="M1009.69 140.729V168.17H1024.65M1009.69 140.729L1020.31 134.592H1024.65V130.62H1028.52V134.592H1034.31L1043 140.729M1009.69 140.729H1024.65M1043 140.729V168.17H1027.55M1043 140.729H1027.55M1024.65 140.729V168.17M1024.65 140.729H1027.55M1024.65 168.17H1027.55M1027.55 168.17V140.729" stroke="#624F41"/>
<path d="M1028.03 146.506H1042.52" stroke="#624F41"/>
<path d="M1027.55 151.561H1043" stroke="#624F41"/>
<path d="M1028.03 156.977H1043.49" stroke="#624F41"/>
<path d="M1027.55 161.31H1043" stroke="#624F41"/>
<path d="M1036.73 168.17V140.729" stroke="#624F41"/>
<path d="M1032.38 140.729V168.17" stroke="#624F41"/>
<path d="M1020.79 140.729V168.17" stroke="#624F41"/>
<path d="M1016.45 140.729V168.17" stroke="#624F41"/>
<path d="M1024.65 146.506H1009.69" stroke="#624F41"/>
<path d="M1024.65 151.561H1010.17" stroke="#624F41"/>
<path d="M1024.65 156.977H1009.69" stroke="#624F41"/>
<path d="M1024.65 161.31H1009.69" stroke="#624F41"/>
<path d="M1069.08 140.729V168.17H1084.05M1069.08 140.729L1079.7 134.591H1084.05V130.62H1087.91V134.591H1093.71L1102.4 140.729M1069.08 140.729H1084.05M1102.4 140.729V168.17H1086.94M1102.4 140.729H1086.94M1084.05 140.729V168.17M1084.05 140.729H1086.94M1084.05 168.17H1086.94M1086.94 168.17V140.729" stroke="#624F41"/>
<path d="M1087.43 146.506H1101.91" stroke="#624F41"/>
<path d="M1086.95 151.561H1102.4" stroke="#624F41"/>
<path d="M1087.43 156.977H1102.88" stroke="#624F41"/>
<path d="M1086.95 161.31H1102.4" stroke="#624F41"/>
<path d="M1096.12 168.17V140.73" stroke="#624F41"/>
<path d="M1091.77 140.73V168.17" stroke="#624F41"/>
<path d="M1080.18 140.73V168.17" stroke="#624F41"/>
<path d="M1075.84 140.73V168.17" stroke="#624F41"/>
<path d="M1084.05 146.506H1069.08" stroke="#624F41"/>
<path d="M1084.05 151.561H1069.56" stroke="#624F41"/>
<path d="M1084.05 156.977H1069.08" stroke="#624F41"/>
<path d="M1084.05 161.31H1069.08" stroke="#624F41"/>
<path d="M1123.16 140.729V168.17H1138.13M1123.16 140.729L1133.78 134.592H1138.13V130.62H1141.99V134.592H1147.79L1156.48 140.729M1123.16 140.729H1138.13M1156.48 140.729V168.17H1141.03M1156.48 140.729H1141.03M1138.13 140.729V168.17M1138.13 140.729H1141.03M1138.13 168.17H1141.03M1141.03 168.17V140.729" stroke="#624F41"/>
<path d="M1141.51 146.506H1156" stroke="#624F41"/>
<path d="M1141.03 151.561H1156.48" stroke="#624F41"/>
<path d="M1141.51 156.977H1156.96" stroke="#624F41"/>
<path d="M1141.03 161.31H1156.48" stroke="#624F41"/>
<path d="M1150.2 168.17V140.729" stroke="#624F41"/>
<path d="M1145.86 140.729V168.17" stroke="#624F41"/>
<path d="M1134.27 140.729V168.17" stroke="#624F41"/>
<path d="M1129.92 140.729V168.17" stroke="#624F41"/>
<path d="M1138.13 146.506H1123.16" stroke="#624F41"/>
<path d="M1138.13 151.561H1123.64" stroke="#624F41"/>
<path d="M1138.13 156.977H1123.16" stroke="#624F41"/>
<path d="M1138.13 161.31H1123.16" stroke="#624F41"/>
<path d="M1181.11 140.729V168.17H1196.07M1181.11 140.729L1191.73 134.592H1196.07V130.62H1199.94V134.592H1205.73L1214.42 140.729M1181.11 140.729H1196.07M1214.42 140.729V168.17H1198.97M1214.42 140.729H1198.97M1196.07 140.729V168.17M1196.07 140.729H1198.97M1196.07 168.17H1198.97M1198.97 168.17V140.729" stroke="#624F41"/>
<path d="M1199.45 146.506H1213.94" stroke="#624F41"/>
<path d="M1198.97 151.561H1214.42" stroke="#624F41"/>
<path d="M1199.45 156.977H1214.91" stroke="#624F41"/>
<path d="M1198.97 161.31H1214.42" stroke="#624F41"/>
<path d="M1208.15 168.17V140.729" stroke="#624F41"/>
<path d="M1203.8 140.729V168.17" stroke="#624F41"/>
<path d="M1192.21 140.729V168.17" stroke="#624F41"/>
<path d="M1187.87 140.729V168.17" stroke="#624F41"/>
<path d="M1196.07 146.506H1181.11" stroke="#624F41"/>
<path d="M1196.07 151.561H1181.59" stroke="#624F41"/>
<path d="M1196.07 156.977H1181.11" stroke="#624F41"/>
<path d="M1196.07 161.31H1181.11" stroke="#624F41"/>
<path d="M1181.11 186.223V213.663H1196.07M1181.11 186.223L1191.73 180.085H1196.07V176.113H1199.94V180.085H1205.73L1214.42 186.223M1181.11 186.223H1196.07M1214.42 186.223V213.663H1198.97M1214.42 186.223H1198.97M1196.07 186.223V213.663M1196.07 186.223H1198.97M1196.07 213.663H1198.97M1198.97 213.663V186.223" stroke="#624F41"/>
<path d="M1199.45 192H1213.94" stroke="#624F41"/>
<path d="M1198.97 197.054H1214.42" stroke="#624F41"/>
<path d="M1199.45 202.47H1214.91" stroke="#624F41"/>
<path d="M1198.97 206.803H1214.42" stroke="#624F41"/>
<path d="M1208.15 213.663V186.223" stroke="#624F41"/>
<path d="M1203.8 186.223V213.663" stroke="#624F41"/>
<path d="M1192.21 186.223V213.663" stroke="#624F41"/>
<path d="M1187.87 186.223V213.663" stroke="#624F41"/>
<path d="M1196.07 192H1181.11" stroke="#624F41"/>
<path d="M1196.07 197.054H1181.59" stroke="#624F41"/>
<path d="M1196.07 202.47H1181.11" stroke="#624F41"/>
<path d="M1196.07 206.803H1181.11" stroke="#624F41"/>
<path d="M1123.16 186.223V213.663H1138.13M1123.16 186.223L1133.78 180.085H1138.13V176.113H1141.99V180.085H1147.79L1156.48 186.223M1123.16 186.223H1138.13M1156.48 186.223V213.663H1141.03M1156.48 186.223H1141.03M1138.13 186.223V213.663M1138.13 186.223H1141.03M1138.13 213.663H1141.03M1141.03 213.663V186.223" stroke="#624F41"/>
<path d="M1141.51 192H1156" stroke="#624F41"/>
<path d="M1141.03 197.054H1156.48" stroke="#624F41"/>
<path d="M1141.51 202.47H1156.96" stroke="#624F41"/>
<path d="M1141.03 206.803H1156.48" stroke="#624F41"/>
<path d="M1150.2 213.663V186.223" stroke="#624F41"/>
<path d="M1145.86 186.223V213.663" stroke="#624F41"/>
<path d="M1134.27 186.223V213.663" stroke="#624F41"/>
<path d="M1129.92 186.223V213.663" stroke="#624F41"/>
<path d="M1138.13 192H1123.16" stroke="#624F41"/>
<path d="M1138.13 197.054H1123.64" stroke="#624F41"/>
<path d="M1138.13 202.47H1123.16" stroke="#624F41"/>
<path d="M1138.13 206.803H1123.16" stroke="#624F41"/>
<path d="M1069.08 186.223V213.663H1084.05M1069.08 186.223L1079.7 180.085H1084.05V176.113H1087.91V180.085H1093.71L1102.4 186.223M1069.08 186.223H1084.05M1102.4 186.223V213.663H1086.94M1102.4 186.223H1086.94M1084.05 186.223V213.663M1084.05 186.223H1086.94M1084.05 213.663H1086.94M1086.94 213.663V186.223" stroke="#624F41"/>
<path d="M1087.43 192H1101.91" stroke="#624F41"/>
<path d="M1086.95 197.054H1102.4" stroke="#624F41"/>
<path d="M1087.43 202.47H1102.88" stroke="#624F41"/>
<path d="M1086.95 206.803H1102.4" stroke="#624F41"/>
<path d="M1096.12 213.663V186.223" stroke="#624F41"/>
<path d="M1091.77 186.223V213.663" stroke="#624F41"/>
<path d="M1080.18 186.223V213.663" stroke="#624F41"/>
<path d="M1075.84 186.223V213.663" stroke="#624F41"/>
<path d="M1084.05 192H1069.08" stroke="#624F41"/>
<path d="M1084.05 197.054H1069.56" stroke="#624F41"/>
<path d="M1084.05 202.47H1069.08" stroke="#624F41"/>
<path d="M1084.05 206.803H1069.08" stroke="#624F41"/>
<path d="M414.304 186.223V213.663H429.273M414.304 186.223L424.927 180.085H429.273V176.113H433.136V180.085H438.931L447.622 186.223M414.304 186.223H429.273M447.622 186.223V213.663H432.17M447.622 186.223H432.17M429.273 186.223V213.663M429.273 186.223H432.17M429.273 213.663H432.17M432.17 213.663V186.223" stroke="#624F41"/>
<path d="M432.653 192H447.139" stroke="#624F41"/>
<path d="M432.171 197.054H447.623" stroke="#624F41"/>
<path d="M432.653 202.47H448.105" stroke="#624F41"/>
<path d="M432.171 206.803H447.623" stroke="#624F41"/>
<path d="M441.346 213.663V186.223" stroke="#624F41"/>
<path d="M436.999 186.223V213.663" stroke="#624F41"/>
<path d="M425.411 186.223V213.663" stroke="#624F41"/>
<path d="M421.065 186.223V213.663" stroke="#624F41"/>
<path d="M429.273 192H414.304" stroke="#624F41"/>
<path d="M429.274 197.054H414.788" stroke="#624F41"/>
<path d="M429.273 202.47H414.304" stroke="#624F41"/>
<path d="M429.273 206.803H414.304" stroke="#624F41"/>
<path d="M415.27 142.896V170.336H430.239M415.27 142.896L425.893 136.758H430.239V132.786H434.102V136.758H439.897L448.588 142.896M415.27 142.896H430.239M448.588 142.896V170.336H433.137M448.588 142.896H433.137M430.239 142.896V170.336M430.239 142.896H433.137M430.239 170.336H433.137M433.137 170.336V142.896" stroke="#624F41"/>
<path d="M433.62 148.673H448.106" stroke="#624F41"/>
<path d="M433.136 153.727H448.588" stroke="#624F41"/>
<path d="M433.62 159.143H449.072" stroke="#624F41"/>
<path d="M433.136 163.476H448.588" stroke="#624F41"/>
<path d="M442.311 170.336V142.896" stroke="#624F41"/>
<path d="M437.965 142.896V170.336" stroke="#624F41"/>
<path d="M426.377 142.896V170.336" stroke="#624F41"/>
<path d="M422.031 142.896V170.336" stroke="#624F41"/>
<path d="M430.239 148.673H415.27" stroke="#624F41"/>
<path d="M430.239 153.727H415.753" stroke="#624F41"/>
<path d="M430.239 159.143H415.27" stroke="#624F41"/>
<path d="M430.239 163.476H415.27" stroke="#624F41"/>
<path d="M357.325 186.945V214.385H372.294M357.325 186.945L367.948 180.807H372.294V176.835H376.157V180.807H381.952L390.643 186.945M357.325 186.945H372.294M390.643 186.945V214.385H375.191M390.643 186.945H375.191M372.294 186.945V214.385M372.294 186.945H375.191M372.294 214.385H375.191M375.191 214.385V186.945" stroke="#624F41"/>
<path d="M375.674 192.722H390.16" stroke="#624F41"/>
<path d="M375.191 197.777H390.643" stroke="#624F41"/>
<path d="M375.674 203.192H391.126" stroke="#624F41"/>
<path d="M375.191 207.525H390.643" stroke="#624F41"/>
<path d="M384.366 214.385V186.945" stroke="#624F41"/>
<path d="M380.02 186.945V214.385" stroke="#624F41"/>
<path d="M368.431 186.945V214.385" stroke="#624F41"/>
<path d="M364.086 186.945V214.385" stroke="#624F41"/>
<path d="M372.294 192.722H357.325" stroke="#624F41"/>
<path d="M372.295 197.777H357.808" stroke="#624F41"/>
<path d="M372.294 203.192H357.325" stroke="#624F41"/>
<path d="M372.294 207.525H357.325" stroke="#624F41"/>
<path d="M355.394 142.896V170.336H370.363M355.394 142.896L366.017 136.758H370.363V132.786H374.226V136.758H380.021L388.712 142.896M355.394 142.896H370.363M388.712 142.896V170.336H373.261M388.712 142.896H373.261M370.363 142.896V170.336M370.363 142.896H373.261M370.363 170.336H373.261M373.261 170.336V142.896" stroke="#624F41"/>
<path d="M373.743 148.672H388.23" stroke="#624F41"/>
<path d="M373.261 153.728H388.713" stroke="#624F41"/>
<path d="M373.743 159.143H389.195" stroke="#624F41"/>
<path d="M373.261 163.476H388.713" stroke="#624F41"/>
<path d="M382.435 170.336V142.896" stroke="#624F41"/>
<path d="M378.089 142.896V170.336" stroke="#624F41"/>
<path d="M366.5 142.896V170.336" stroke="#624F41"/>
<path d="M362.154 142.896V170.336" stroke="#624F41"/>
<path d="M370.363 148.672H355.394" stroke="#624F41"/>
<path d="M370.363 153.728H355.877" stroke="#624F41"/>
<path d="M370.363 159.143H355.394" stroke="#624F41"/>
<path d="M370.363 163.476H355.394" stroke="#624F41"/>
<path d="M355.394 142.896V170.336H370.363M355.394 142.896L366.017 136.758H370.363V132.786H374.226V136.758H380.021L388.712 142.896M355.394 142.896H370.363M388.712 142.896V170.336H373.261M388.712 142.896H373.261M370.363 142.896V170.336M370.363 142.896H373.261M370.363 170.336H373.261M373.261 170.336V142.896" stroke="#624F41"/>
<path d="M373.743 148.672H388.23" stroke="#624F41"/>
<path d="M373.261 153.728H388.713" stroke="#624F41"/>
<path d="M373.743 159.143H389.195" stroke="#624F41"/>
<path d="M373.261 163.476H388.713" stroke="#624F41"/>
<path d="M382.435 170.336V142.896" stroke="#624F41"/>
<path d="M378.089 142.896V170.336" stroke="#624F41"/>
<path d="M366.5 142.896V170.336" stroke="#624F41"/>
<path d="M362.154 142.896V170.336" stroke="#624F41"/>
<path d="M370.363 148.672H355.394" stroke="#624F41"/>
<path d="M370.363 153.728H355.877" stroke="#624F41"/>
<path d="M370.363 159.143H355.394" stroke="#624F41"/>
<path d="M370.363 163.476H355.394" stroke="#624F41"/>
<path d="M298.415 186.945V214.385H313.384M298.415 186.945L309.038 180.807H313.384V176.835H317.247V180.807H323.041L331.733 186.945M298.415 186.945H313.384M331.733 186.945V214.385H316.281M331.733 186.945H316.281M313.384 186.945V214.385M313.384 186.945H316.281M313.384 214.385H316.281M316.281 214.385V186.945" stroke="#624F41"/>
<path d="M316.764 192.722H331.251" stroke="#624F41"/>
<path d="M316.281 197.777H331.733" stroke="#624F41"/>
<path d="M316.764 203.192H332.216" stroke="#624F41"/>
<path d="M316.281 207.525H331.733" stroke="#624F41"/>
<path d="M325.456 214.385V186.945" stroke="#624F41"/>
<path d="M321.11 186.945V214.385" stroke="#624F41"/>
<path d="M309.521 186.945V214.385" stroke="#624F41"/>
<path d="M305.175 186.945V214.385" stroke="#624F41"/>
<path d="M313.384 192.722H298.415" stroke="#624F41"/>
<path d="M313.384 197.777H298.897" stroke="#624F41"/>
<path d="M313.384 203.192H298.415" stroke="#624F41"/>
<path d="M313.384 207.525H298.415" stroke="#624F41"/>
<path d="M241.437 186.945V214.385H256.406M241.437 186.945L252.06 180.807H256.406V176.835H260.269V180.807H266.063L274.755 186.945M241.437 186.945H256.406M274.755 186.945V214.385H259.303M274.755 186.945H259.303M256.406 186.945V214.385M256.406 186.945H259.303M256.406 214.385H259.303M259.303 214.385V186.945" stroke="#624F41"/>
<path d="M259.786 192.722H274.272" stroke="#624F41"/>
<path d="M259.303 197.777H274.755" stroke="#624F41"/>
<path d="M259.786 203.192H275.238" stroke="#624F41"/>
<path d="M259.303 207.525H274.755" stroke="#624F41"/>
<path d="M268.478 214.385V186.945" stroke="#624F41"/>
<path d="M264.132 186.945V214.385" stroke="#624F41"/>
<path d="M252.542 186.945V214.385" stroke="#624F41"/>
<path d="M248.197 186.945V214.385" stroke="#624F41"/>
<path d="M256.406 192.722H241.437" stroke="#624F41"/>
<path d="M256.406 197.777H241.919" stroke="#624F41"/>
<path d="M256.406 203.192H241.437" stroke="#624F41"/>
<path d="M256.406 207.525H241.437" stroke="#624F41"/>
<path d="M240.471 142.173V169.614H255.44M240.471 142.173L251.094 136.035H255.44V132.064H259.303V136.035H265.097L273.789 142.173M240.471 142.173H255.44M273.789 142.173V169.614H258.337M273.789 142.173H258.337M255.44 142.173V169.614M255.44 142.173H258.337M255.44 169.614H258.337M258.337 169.614V142.173" stroke="#624F41"/>
<path d="M258.819 147.951H273.305" stroke="#624F41"/>
<path d="M258.336 153.005H273.788" stroke="#624F41"/>
<path d="M258.819 158.421H274.271" stroke="#624F41"/>
<path d="M258.336 162.754H273.788" stroke="#624F41"/>
<path d="M267.511 169.614V142.173" stroke="#624F41"/>
<path d="M263.166 142.173V169.614" stroke="#624F41"/>
<path d="M251.577 142.173V169.614" stroke="#624F41"/>
<path d="M247.231 142.173V169.614" stroke="#624F41"/>
<path d="M255.44 147.951H240.471" stroke="#624F41"/>
<path d="M255.44 153.005H240.953" stroke="#624F41"/>
<path d="M255.44 158.421H240.471" stroke="#624F41"/>
<path d="M255.44 162.754H240.471" stroke="#624F41"/>
<path d="M298.415 142.173V169.614H313.384M298.415 142.173L309.038 136.035H313.384V132.064H317.247V136.035H323.041L331.733 142.173M298.415 142.173H313.384M331.733 142.173V169.614H316.281M331.733 142.173H316.281M313.384 142.173V169.614M313.384 142.173H316.281M313.384 169.614H316.281M316.281 169.614V142.173" stroke="#624F41"/>
<path d="M316.764 147.951H331.251" stroke="#624F41"/>
<path d="M316.281 153.005H331.733" stroke="#624F41"/>
<path d="M316.764 158.421H332.216" stroke="#624F41"/>
<path d="M316.281 162.754H331.733" stroke="#624F41"/>
<path d="M325.456 169.614V142.173" stroke="#624F41"/>
<path d="M321.11 142.173V169.614" stroke="#624F41"/>
<path d="M309.521 142.173V169.614" stroke="#624F41"/>
<path d="M305.175 142.173V169.614" stroke="#624F41"/>
<path d="M313.384 147.951H298.415" stroke="#624F41"/>
<path d="M313.384 153.005H298.897" stroke="#624F41"/>
<path d="M313.384 158.421H298.415" stroke="#624F41"/>
<path d="M313.384 162.754H298.415" stroke="#624F41"/>
<path d="M1009.2 186.223V213.663H1024.17M1009.2 186.223L1019.83 180.085H1024.17V176.113H1028.03V180.085H1033.83L1042.52 186.223M1009.2 186.223H1024.17M1042.52 186.223V213.663H1027.07M1042.52 186.223H1027.07M1024.17 186.223V213.663M1024.17 186.223H1027.07M1024.17 213.663H1027.07M1027.07 213.663V186.223" stroke="#624F41"/>
<path d="M1027.55 192H1042.04" stroke="#624F41"/>
<path d="M1027.07 197.054H1042.52" stroke="#624F41"/>
<path d="M1027.55 202.47H1043" stroke="#624F41"/>
<path d="M1027.07 206.803H1042.52" stroke="#624F41"/>
<path d="M1036.24 213.663V186.223" stroke="#624F41"/>
<path d="M1031.9 186.223V213.663" stroke="#624F41"/>
<path d="M1020.31 186.223V213.663" stroke="#624F41"/>
<path d="M1015.96 186.223V213.663" stroke="#624F41"/>
<path d="M1024.17 192H1009.2" stroke="#624F41"/>
<path d="M1024.17 197.054H1009.69" stroke="#624F41"/>
<path d="M1024.17 202.47H1009.2" stroke="#624F41"/>
<path d="M1024.17 206.803H1009.2" stroke="#624F41"/>
<path d="M1307.62 264.664V287.319H1332.73V256.99" stroke="#624F41"/>
<path d="M1307.62 256.99V259.878" stroke="#624F41"/>
<path d="M1320.17 259.156V287.319" stroke="#624F41"/>
<path d="M1307.62 279.014H1332.24" stroke="#624F41"/>
<path d="M1307.62 271.071H1332.73" stroke="#624F41"/>
<path d="M1332.73 263.128H1311" stroke="#624F41"/>
<path d="M1440.41 251.213H1444.75V289.124" stroke="#624F41"/>
<path d="M1440.41 251.213V289.124" stroke="#624F41"/>
<path d="M1425.44 250.852L1423.51 251.935L1440.41 263.128V261.323L1425.44 250.852Z" stroke="#624F41"/>
<path d="M1445.24 260.962L1458.76 250.852L1461.17 251.935L1445.24 263.489M1412.88 251.935L1414.33 250.852L1440.41 263.489V264.933L1412.88 251.935Z" stroke="#624F41"/>
<path d="M1444.75 263.85L1464.55 252.657L1466 255.185L1444.75 265.656" stroke="#624F41"/>
<path d="M1385.36 251.574C1400.49 247.843 1431.43 240.381 1434.13 240.381C1436.83 240.381 1447.17 240.381 1452 240.381" stroke="#624F41"/>
<path d="M1385.36 251.574L1394.05 255.185L1418.68 254.823" stroke="#624F41"/>
<path d="M1423.02 254.823H1427.85" stroke="#624F41"/>
<path d="M1431.72 254.823H1440.41" stroke="#624F41"/>
<path d="M1445.24 254.823H1453.45" stroke="#624F41"/>
<path d="M1457.79 254.823H1460.69" stroke="#624F41"/>
<path d="M1452 240.381C1456.34 240.983 1465.23 242.331 1466 242.909" stroke="#624F41"/>
<path d="M1414.82 255.185V286.958H1440.41" stroke="#624F41"/>
<path d="M1414.82 279.014H1440.41" stroke="#624F41"/>
<path d="M1414.82 271.071H1440.41" stroke="#624F41"/>
<path d="M1414.82 263.128H1435.58" stroke="#624F41"/>
<path d="M1427.85 259.156V286.958" stroke="#624F41"/>
<path d="M1432.68 263.128H1436.54" stroke="#624F41"/>
<path d="M1427.85 255.185V257.351" stroke="#624F41"/>
<path d="M1226.01 79.7105L1242.43 73.2114" stroke="#624F41"/>
<path d="M1226.01 64.1853L1242.91 57.6863" stroke="#624F41"/>
<path d="M1226.01 49.7427L1242.91 43.2437" stroke="#624F41"/>
<path d="M1226.49 34.9394L1243.4 27.7183" stroke="#624F41"/>
<path d="M982.162 28.0791L994.717 33.495" stroke="#624F41"/>
<path d="M982.645 42.8826L994.717 48.6595" stroke="#624F41"/>
<path d="M982.162 57.3248L995.199 63.8239" stroke="#624F41"/>
<path d="M982.162 72.8503L994.717 78.6273" stroke="#624F41"/>
<path d="M1100.47 24.8298H1124.61" stroke="#624F41"/>
<path d="M1083.56 41.0775H1100.95" stroke="#624F41"/>
<path d="M1062.32 56.964H1083.08" stroke="#624F41"/>
<path d="M1044.45 72.8503H1062.8" stroke="#624F41"/>
<path d="M1025.14 88.376H1044.45" stroke="#624F41"/>
<path d="M1004.86 103.541H1024.65" stroke="#624F41"/>
<path d="M982.645 107.873H995.2" stroke="#624F41"/>
<path d="M995.682 125.204V158.782H1001.48" stroke="#624F41"/>
<path d="M1001.96 124.843V128.453H1004.86V170.697H1051.7" stroke="#624F41"/>
<path d="M1013.55 108.957V127.37H1018.38" stroke="#624F41"/>
<path d="M1019.34 108.234V111.845H1022.24V134.591" stroke="#624F41"/>
<path d="M1034.8 92.3478V126.648H1039.14" stroke="#624F41"/>
<path d="M1040.11 92.3478V95.2362H1043.49V140.368" stroke="#624F41"/>
<path d="M1055.08 76.822V159.143H1058.94" stroke="#624F41"/>
<path d="M1059.42 76.4609V79.7105H1062.8V170.697H1109.16" stroke="#624F41"/>
<path d="M1072.94 62.3798V127.009H1077.29" stroke="#624F41"/>
<path d="M1078.74 62.3798V65.6293H1081.63V134.591" stroke="#624F41"/>
<path d="M1093.71 46.8542V126.648H1098.53" stroke="#624F41"/>
<path d="M1100.47 47.2155V50.465H1103.36V139.646" stroke="#624F41"/>
<path d="M1111.09 29.8846V158.782H1116.4" stroke="#624F41"/>
<path d="M1116.4 30.2457V32.7731H1119.78V170.697H1165.17V79.7106H1168.07V76.4611" stroke="#624F41"/>
<path d="M1127.02 47.2155V50.826H1123.64V140.007" stroke="#624F41"/>
<path d="M1132.34 47.2155V126.648H1127.51" stroke="#624F41"/>
<path d="M1147.3 62.3798V65.9903H1143.44V134.23" stroke="#624F41"/>
<path d="M1152.62 62.3798V127.009H1148.27" stroke="#624F41"/>
<path d="M1167.59 159.143H1171.93V76.822" stroke="#624F41"/>
<path d="M1184.49 92.3478V95.5973H1181.11V140.73" stroke="#624F41"/>
<path d="M1184.97 126.648H1189.31V92.7089" stroke="#624F41"/>
<path d="M1202.83 134.23V110.762H1206.21V108.234" stroke="#624F41"/>
<path d="M1205.73 127.009H1212.01V108.234" stroke="#624F41"/>
<path d="M1174.35 170.697H1222.63V128.092H1226.5V124.843" stroke="#624F41"/>
<path d="M1226.01 159.504H1231.81V125.204" stroke="#624F41"/>
<path d="M1181.59 89.0981H1202.83" stroke="#624F41"/>
<path d="M1162.27 73.2114H1182.07" stroke="#624F41"/>
<path d="M1142.48 56.964H1163.24" stroke="#624F41"/>
<path d="M1124.13 41.4386H1143.44" stroke="#624F41"/>
<path d="M1067.63 251.213V243.992C1070.21 241.946 1076.13 237.782 1079.22 237.493H1093.22C1096.76 239.178 1103.85 242.837 1103.85 243.992V251.213M1067.63 251.213V253.018M1067.63 251.213H1091.77M1103.85 251.213V253.018M1103.85 251.213H1091.77M1067.63 253.018V279.737H1103.85V253.018M1067.63 253.018H1078.25M1103.85 253.018H1093.22M1078.25 253.018C1078.25 256.629 1073.43 261.202 1070.53 263.128V274.682H1100.95V263.128C1097.89 260.962 1092.74 255.907 1093.22 253.018M1078.25 253.018H1093.22M1079.22 251.213C1081.63 248.926 1084.82 242.764 1084.05 239.298H1086.95C1087.59 242.668 1088.88 248.325 1091.77 251.213M1124.61 251.213V243.992C1127.18 241.946 1133.11 237.782 1136.2 237.493H1150.2C1153.74 239.178 1160.83 242.837 1160.83 243.992V251.213M1124.61 251.213V253.018M1124.61 251.213H1136.2M1160.83 251.213V253.018M1160.83 251.213H1148.75M1124.61 253.018V279.737H1160.83V253.018M1124.61 253.018H1135.23M1160.83 253.018H1150.2M1135.23 253.018C1135.23 256.629 1130.4 261.202 1127.51 263.128V274.682H1157.93V263.128C1154.87 260.962 1149.72 255.907 1150.2 253.018M1135.23 253.018H1150.2M1136.2 251.213C1138.61 248.926 1141.8 242.764 1141.03 239.298H1143.92C1144.57 242.668 1145.86 248.325 1148.75 251.213M1136.2 251.213H1148.75M1007.27 251.213V243.992C1009.85 241.946 1015.77 237.782 1018.86 237.493H1032.86C1036.41 239.178 1043.49 242.837 1043.49 243.992V251.213M1007.27 251.213V253.018M1007.27 251.213H1018.86M1043.49 251.213V253.018M1043.49 251.213H1031.42M1007.27 253.018V279.737H1043.49V253.018M1007.27 253.018H1017.89M1043.49 253.018H1032.86M1017.89 253.018C1017.89 256.629 1013.07 261.202 1010.17 263.128V274.682H1040.59V263.128C1037.53 260.962 1032.38 255.907 1032.86 253.018M1017.89 253.018H1032.86M1018.86 251.213C1021.28 248.926 1024.46 242.764 1023.69 239.298H1026.59C1027.23 242.668 1028.52 248.325 1031.42 251.213M1018.86 251.213H1031.42M1184.49 249.047V298.151H1217.8V249.047M1184.49 249.047V244.353C1187.38 242.307 1193.85 238.215 1196.56 238.215H1207.66C1211.04 239.659 1217.8 242.837 1217.8 243.992V249.047M1184.49 249.047H1217.8M1204.77 262.045V269.988H1215.39V262.045H1204.77ZM1204.77 251.213V259.156H1215.39V251.213H1204.77ZM1187.38 262.045V269.988H1198.01V262.045H1187.38ZM1187.38 251.213V259.156H1198.01V251.213H1187.38ZM1187.38 272.877V280.82H1198.01V272.877H1187.38ZM1204.77 272.877V280.82H1215.39V272.877H1204.77ZM1187.38 283.347V291.291H1198.01V283.347H1187.38ZM1204.77 283.347V291.291H1215.39V283.347H1204.77Z" stroke="#624F41"/>
<path d="M529.711 207.164L474.664 166.003V193.805L551.44 223.412L529.711 207.164ZM529.711 207.164V98.8466L535.377 93.0697M556.269 71.7673L535.377 93.0697M535.377 93.0697V7.13794" stroke="#624F41"/>
<path d="M863.858 194.888H879.31" stroke="#624F41"/>
<path d="M877.861 188.389H863.375" stroke="#624F41"/>
<path d="M850.338 182.251H864.342" stroke="#624F41"/>
<path d="M849.855 175.391H865.79" stroke="#624F41"/>
<path d="M794.807 124.121H810.742" stroke="#624F41"/>
<path d="M753.281 85.8486H769.216" stroke="#624F41"/>
<path d="M693.405 72.8503H709.339" stroke="#624F41"/>
<path d="M623.871 137.119H639.806" stroke="#624F41"/>
<path d="M556.269 208.608H572.204" stroke="#624F41"/>
<path d="M547.577 220.162H559.166" stroke="#624F41"/>
<path d="M545.646 213.302H559.167" stroke="#624F41"/>
<path d="M578.03 2.08313V62.4229L585.241 57.7534V2.08313M569.789 70.6841V5.31201C570.304 4.35418 572.055 2.7977 574.94 4.23445L575.455 67.0923L569.789 70.6841Z" stroke="#624F41"/>
<path d="M588.139 1.36084V53.3532L593.933 48.0401V1.36084" stroke="#624F41"/>
<path d="M598.762 1.72205V42.1605L604.556 38.1889V1.72205" stroke="#624F41"/>
<path d="M609.385 1.72205V31.6898L616.145 26.635V1.72205" stroke="#624F41"/>
<path d="M620.973 2.08313V19.0528L627.251 15.8033V2.08313" stroke="#624F41"/>
<path d="M556.269 202.109H572.204" stroke="#624F41"/>
<path d="M571.721 194.888H587.656" stroke="#624F41"/>
<path d="M571.721 188.389H587.656" stroke="#624F41"/>
<path d="M584.276 182.612H600.21" stroke="#624F41"/>
<path d="M584.276 175.391H600.21" stroke="#624F41"/>
<path d="M597.796 163.115H613.73" stroke="#624F41"/>
<path d="M597.796 169.614H613.73" stroke="#624F41"/>
<path d="M610.351 156.616H626.285" stroke="#624F41"/>
<path d="M610.351 150.117H626.285" stroke="#624F41"/>
<path d="M623.871 143.618H639.806" stroke="#624F41"/>
<path d="M637.392 130.62H653.326" stroke="#624F41"/>
<path d="M637.392 124.121H653.326" stroke="#624F41"/>
<path d="M653.81 117.622H669.744" stroke="#624F41"/>
<path d="M653.81 111.123H669.744" stroke="#624F41"/>
<path d="M667.329 105.346H683.264" stroke="#624F41"/>
<path d="M667.329 98.8466H683.264" stroke="#624F41"/>
<path d="M680.85 92.3478H696.784" stroke="#624F41"/>
<path d="M680.85 85.8486H696.784" stroke="#624F41"/>
<path d="M693.405 72.8503H709.339" stroke="#624F41"/>
<path d="M693.405 80.0717H709.339" stroke="#624F41"/>
<path d="M740.727 72.8503H756.661" stroke="#624F41"/>
<path d="M740.727 80.0717H756.661" stroke="#624F41"/>
<path d="M753.281 92.3478H769.216" stroke="#624F41"/>
<path d="M766.801 98.8466H782.736" stroke="#624F41"/>
<path d="M767.767 105.346H783.701" stroke="#624F41"/>
<path d="M781.287 111.123H797.222" stroke="#624F41"/>
<path d="M781.287 117.622H797.222" stroke="#624F41"/>
<path d="M794.807 130.62H810.742" stroke="#624F41"/>
<path d="M810.26 137.119H826.194" stroke="#624F41"/>
<path d="M809.294 143.618H825.229" stroke="#624F41"/>
<path d="M822.814 150.117H838.749" stroke="#624F41"/>
<path d="M822.814 156.616H838.749" stroke="#624F41"/>
<path d="M837.3 162.393H853.235" stroke="#624F41"/>
<path d="M837.3 168.892H853.235" stroke="#624F41"/>
<path d="M701.613 1C710.627 9.30433 733.676 20.9304 753.763 1" stroke="#624F41"/>
<path d="M708.856 65.9904H742.657" stroke="#624F41"/>
<path d="M708.856 59.1305H740.726" stroke="#624F41"/>
<path d="M561.098 3.88843V194.888" stroke="#624F41"/>
<path d="M627.251 16.1643V135.313" stroke="#624F41"/>
<path d="M827.16 18.3309V134.953" stroke="#624F41"/>
<path d="M825.711 1.36084V15.8032L831.989 20.1358V1.36084" stroke="#624F41"/>
<path d="M836.818 1.36084V24.4685L842.129 30.6065V1.36084" stroke="#624F41"/>
<path d="M847.923 1.72205V38.1889L854.201 43.9658V1.72205" stroke="#624F41"/>
<path d="M858.547 2.08313V46.4932L864.341 51.9091V2.08313" stroke="#624F41"/>
<path d="M869.653 2.08313V54.4365L874.964 60.2134V2.08313" stroke="#624F41"/>
<path d="M885.588 2.80513C882.497 0.783206 879.793 1.96266 878.827 2.80513V65.6293L885.588 71.4062V2.80513Z" stroke="#624F41"/>
<path d="M838.266 282.986V247.602C843.739 242.788 858.837 236.049 875.448 247.602V282.986M575.584 282.986V250.13C581.7 243.871 597.313 235.11 610.834 250.13V282.986" stroke="#624F41"/>
<path d="M578.481 201.748V208.608M578.481 208.608H577.032M578.481 208.608V229.911" stroke="#624F41"/>
<path d="M577.032 232.799H583.31V208.608M583.31 208.608H581.861M583.31 208.608V202.109" stroke="#624F41"/>
<path d="M590.553 232.799H597.313V208.608M597.313 208.608H595.382M597.313 208.608V189.833" stroke="#624F41"/>
<path d="M592.002 189.833V195.61M592.002 195.61H590.553M592.002 195.61V208.608M592.002 208.608H590.553M592.002 208.608V220.523H590.553" stroke="#624F41"/>
<path d="M597.314 195.61H595.865" stroke="#624F41"/>
<path d="M606.005 176.474V195.249M606.005 195.249H604.074M606.005 195.249V208.608H604.074" stroke="#624F41"/>
<path d="M604.074 232.799H610.834V220.884M610.834 220.884H604.074M610.834 220.884V208.608M610.834 208.608H609.385M610.834 208.608V195.249M610.834 195.249H609.385M610.834 195.249V176.835" stroke="#624F41"/>
<path d="M606.005 176.474V195.249M606.005 195.249H604.074M606.005 195.249V208.608H604.074" stroke="#624F41"/>
<path d="M604.074 232.799H610.834V220.884M610.834 220.884H604.074M610.834 220.884V208.608M610.834 208.608H609.385M610.834 208.608V195.249M610.834 195.249H609.385M610.834 195.249V176.835" stroke="#624F41"/>
<path d="M853.718 233.16H860.478V208.969M860.478 208.969H858.547M860.478 208.969V190.194" stroke="#624F41"/>
<path d="M855.167 190.194V195.971M855.167 195.971H853.718M855.167 195.971V208.969M855.167 208.969H853.718M855.167 208.969V220.884H853.718" stroke="#624F41"/>
<path d="M860.479 195.971H859.03" stroke="#624F41"/>
<path d="M842.129 176.835V195.61M842.129 195.61H840.198M842.129 195.61V208.969H840.198" stroke="#624F41"/>
<path d="M840.198 233.16H846.958V221.245M846.958 221.245H840.198M846.958 221.245V208.969M846.958 208.969H845.509M846.958 208.969V195.61M846.958 195.61H845.509M846.958 195.61V177.196" stroke="#624F41"/>
<path d="M842.129 176.835V195.61M842.129 195.61H840.198M842.129 195.61V208.969H840.198" stroke="#624F41"/>
<path d="M840.198 233.16H846.958V221.245M846.958 221.245H840.198M846.958 221.245V208.969M846.958 208.969H845.509M846.958 208.969V195.61M846.958 195.61H845.509M846.958 195.61V177.196" stroke="#624F41"/>
<path d="M618.076 232.799H624.354V220.704M624.354 162.393V208.608M624.354 208.608H618.076M624.354 208.608V220.704M624.354 220.704H618.076" stroke="#624F41"/>
<path d="M619.525 162.754V195.971" stroke="#624F41"/>
<path d="M827.643 232.799H833.92V220.704M833.92 162.393V208.608M833.92 208.608H827.643M833.92 208.608V220.704M833.92 220.704H827.643" stroke="#624F41"/>
<path d="M829.091 162.754V195.971" stroke="#624F41"/>
<path d="M631.597 232.799H638.357V220.523M638.357 150.839V156.977M638.357 195.249H631.597M638.357 195.249V208.247M638.357 195.249V156.977M638.357 208.247H631.597M638.357 208.247V220.523M638.357 220.523H631.597M638.357 220.523V156.977M638.357 156.977H635.943M633.529 150.839V156.977M633.529 156.977H631.597M633.529 156.977V184.779" stroke="#624F41"/>
<path d="M812.191 232.799H818.951V220.523M818.951 150.839V156.977M818.951 195.249H812.191M818.951 195.249V208.247M818.951 195.249V156.977M818.951 208.247H812.191M818.951 208.247V220.523M818.951 220.523H812.191M818.951 220.523V156.977M818.951 156.977H816.537M814.123 150.839V156.977M814.123 156.977H812.191M814.123 156.977V184.779" stroke="#624F41"/>
<path d="M701.131 208.608H708.374V196.513V195.249M708.374 85.8486V93.7919M708.374 93.7919H705.477M708.374 93.7919V106.068M708.374 106.068H705.477M708.374 106.068V119.066M708.374 119.066H705.477M708.374 119.066V131.703M708.374 131.703H701.131M708.374 131.703V144.701M708.374 144.701H701.131M708.374 144.701V156.977M708.374 156.977H701.131M708.374 156.977V170.697M708.374 170.697H701.131M708.374 170.697V184.417M708.374 184.417H701.131M708.374 184.417V195.249M708.374 195.249H701.131" stroke="#624F41"/>
<path d="M701.614 85.8486V93.7919M701.614 93.7919H699.682M701.614 93.7919V106.068M701.614 106.068H699.682M701.614 106.068V119.066H699.682" stroke="#624F41"/>
<path d="M743.14 208.608H750.383V196.513V195.249M750.383 85.8486V93.7919M750.383 93.7919H747.486M750.383 93.7919V106.068M750.383 106.068H747.486M750.383 106.068V119.066M750.383 119.066H747.486M750.383 119.066V131.703M750.383 131.703H743.14M750.383 131.703V144.701M750.383 144.701H743.14M750.383 144.701V156.977M750.383 156.977H743.14M750.383 156.977V170.697M750.383 170.697H743.14M750.383 170.697V184.417M750.383 184.417H743.14M750.383 184.417V195.249M750.383 195.249H743.14" stroke="#624F41"/>
<path d="M743.623 85.8486V93.7919M743.623 93.7919H741.692M743.623 93.7919V106.068M743.623 106.068H741.692M743.623 106.068V119.066H741.692" stroke="#624F41"/>
<path d="M645.601 208.247H652.361V195.971M652.361 195.971H645.601M652.361 195.971V156.977M652.361 156.977H649.464M652.361 156.977V143.979M652.361 143.979H650.43M652.361 143.979V137.841" stroke="#624F41"/>
<path d="M647.049 137.841V143.979M647.049 143.979H644.634M647.049 143.979V156.977M647.049 156.977H644.634M647.049 156.977V171.419" stroke="#624F41"/>
<path d="M652.36 184.417H645.117" stroke="#624F41"/>
<path d="M798.671 208.969H805.431V196.693M805.431 196.693H798.671M805.431 196.693V157.699M805.431 157.699H802.534M805.431 157.699V144.701M805.431 144.701H803.499M805.431 144.701V138.563" stroke="#624F41"/>
<path d="M800.119 138.563V144.701M800.119 144.701H797.705M800.119 144.701V157.699M800.119 157.699H797.705M800.119 157.699V172.141" stroke="#624F41"/>
<path d="M805.43 185.139H798.187" stroke="#624F41"/>
<path d="M659.121 208.608H666.847V195.249M666.847 125.204V131.703M666.847 131.703H663.467M666.847 131.703V144.34M666.847 144.34H663.467M666.847 144.34V170.336M666.847 170.336H659.121M666.847 170.336V195.249M666.847 195.249H660.569" stroke="#624F41"/>
<path d="M661.052 125.204V131.703M661.052 131.703H657.672M661.052 131.703V144.34M661.052 144.34H658.637M661.052 144.34V156.616M661.052 158.782V156.616M661.052 156.616H658.637" stroke="#624F41"/>
<path d="M659.12 184.778H667.329" stroke="#624F41"/>
<path d="M784.667 208.969H792.393V195.61M792.393 125.565V132.064M792.393 132.064H789.013M792.393 132.064V144.701M792.393 144.701H789.013M792.393 144.701V170.697M792.393 170.697H784.667M792.393 170.697V195.61M792.393 195.61H786.116" stroke="#624F41"/>
<path d="M786.599 125.565V132.064M786.599 132.064H783.219M786.599 132.064V144.701M786.599 144.701H784.185M786.599 144.701V156.977M786.599 159.143V156.977M786.599 156.977H784.185" stroke="#624F41"/>
<path d="M784.667 185.14H792.876" stroke="#624F41"/>
<path d="M673.124 208.608H680.367V195.249M680.367 112.206V118.705M680.367 118.705H677.47M680.367 118.705V131.703M680.367 131.703H677.47M680.367 131.703V144.34M680.367 144.34H677.47M680.367 144.34V156.977M680.367 156.977H672.641M680.367 156.977V170.697M680.367 170.697H673.124M680.367 170.697V195.249M680.367 195.249H672.641" stroke="#624F41"/>
<path d="M673.607 112.567V118.705M673.607 118.705H671.675M673.607 118.705V131.703M673.607 131.703H671.675M673.607 131.703V143.979H671.675" stroke="#624F41"/>
<path d="M673.124 184.779H680.367" stroke="#624F41"/>
<path d="M771.147 208.969H778.39V195.61M778.39 112.567V119.066M778.39 119.066H775.493M778.39 119.066V132.064M778.39 132.064H775.493M778.39 132.064V144.701M778.39 144.701H775.493M778.39 144.701V157.338M778.39 157.338H770.664M778.39 157.338V171.058M778.39 171.058H771.147M778.39 171.058V195.61M778.39 195.61H770.664" stroke="#624F41"/>
<path d="M771.63 112.928V119.066M771.63 119.066H769.698M771.63 119.066V132.064M771.63 132.064H769.698M771.63 132.064V144.34H769.698" stroke="#624F41"/>
<path d="M771.147 185.139H778.39" stroke="#624F41"/>
<path d="M687.127 208.247H694.37V195.249M694.37 98.4855V118.705M694.37 118.705H690.99M694.37 118.705V131.703M694.37 131.703H690.99M694.37 131.703V144.701M694.37 144.701H686.645M694.37 144.701V156.616M694.37 156.616H686.645M694.37 156.616V170.697M694.37 170.697H686.645M694.37 170.697V195.249M694.37 195.249H687.127" stroke="#624F41"/>
<path d="M689.059 99.2078V105.707M689.059 105.707H686.162M689.059 105.707V118.885M689.059 118.885V132.064H686.162M689.059 118.885H686.162" stroke="#624F41"/>
<path d="M694.37 105.707H691.956" stroke="#624F41"/>
<path d="M687.61 184.778H694.37" stroke="#624F41"/>
<path d="M756.177 208.608H763.421V195.61M763.421 98.8466V119.066M763.421 119.066H760.04M763.421 119.066V132.064M763.421 132.064H760.04M763.421 132.064V145.062M763.421 145.062H755.695M763.421 145.062V156.977M763.421 156.977H755.695M763.421 156.977V171.058M763.421 171.058H755.695M763.421 171.058V195.61M763.421 195.61H756.177" stroke="#624F41"/>
<path d="M758.109 99.5686V106.068M758.109 106.068H755.212M758.109 106.068V119.246M758.109 119.246V132.425H755.212M758.109 119.246H755.212" stroke="#624F41"/>
<path d="M763.421 106.068H761.006" stroke="#624F41"/>
<path d="M756.661 185.139H763.421" stroke="#624F41"/>
<path d="M715.134 208.608H722.377V156.977M722.377 72.4895V80.4328M722.377 80.4328H719.963M722.377 80.4328V93.7919M722.377 93.7919H719.963M722.377 93.7919V106.068M722.377 106.068H719.963M722.377 106.068V119.066M722.377 119.066H719.963M722.377 119.066V131.703M722.377 131.703H719.963M722.377 131.703V144.34M722.377 144.34H719.963M722.377 144.34V156.977M722.377 156.977H719.963" stroke="#624F41"/>
<path d="M716.099 72.8503V80.4326M716.099 80.4326H714.651M716.099 80.4326V93.7917M716.099 93.7917H714.651M716.099 93.7917V106.068M716.099 106.068H714.651M716.099 106.068V119.066M716.099 119.066H714.651M716.099 119.066V131.703M716.099 131.703H714.651M716.099 131.703V144.34M716.099 144.34H714.651M716.099 144.34V156.977M716.099 156.977H714.651M716.099 156.977V195.61H714.651" stroke="#624F41"/>
<path d="M728.654 208.969H735.897V157.338M735.897 72.8503V80.7936M735.897 80.7936H733.483M735.897 80.7936V94.1527M735.897 94.1527H733.483M735.897 94.1527V106.429M735.897 106.429H733.483M735.897 106.429V119.427M735.897 119.427H733.483M735.897 119.427V132.064M735.897 132.064H733.483M735.897 132.064V144.701M735.897 144.701H733.483M735.897 144.701V157.338M735.897 157.338H733.483" stroke="#624F41"/>
<path d="M729.62 73.2114V80.7936M729.62 80.7936H728.171M729.62 80.7936V94.1528M729.62 94.1528H728.171M729.62 94.1528V106.429M729.62 106.429H728.171M729.62 106.429V119.427M729.62 119.427H728.171M729.62 119.427V132.064M729.62 132.064H728.171M729.62 132.064V144.701M729.62 144.701H728.171M729.62 144.701V157.338M729.62 157.338H728.171M729.62 157.338V195.971H728.171" stroke="#624F41"/>
<path d="M838.749 255.907C841.968 251.935 851.013 246.375 861.444 255.907V280.098H838.749" stroke="#624F41"/>
<path d="M748.452 270.349H837.783" stroke="#624F41"/>
<path d="M544.68 270.71H587.656" stroke="#624F41"/>
<path d="M611.316 269.988H703.062" stroke="#624F41"/>
<path d="M725.274 237.912C715.809 238.081 708.254 242.74 704.51 246.519V277.931H726.24M725.274 237.912C732.085 237.789 739.886 239.992 747.969 246.519V277.931H726.24M725.274 237.912L726.24 277.931M681.333 283.347V240.742C695.658 225.457 733.096 204.059 768.249 240.742V283.347" stroke="#624F41"/>
<path d="M867.721 233.16H875.447V220.884M875.447 201.748V208.608M875.447 208.608H872.067M875.447 208.608V220.884M875.447 220.884H872.067" stroke="#624F41"/>
<path d="M868.204 202.47V208.247M868.204 208.247H866.273M868.204 208.247V220.523M868.204 220.523H866.273M868.204 220.523V230.272" stroke="#624F41"/>
<path d="M578.481 220.523H576.55" stroke="#624F41"/>
<path d="M564.478 220.523H562.546" stroke="#624F41"/>
<path d="M562.546 232.799H569.789V220.523M569.789 214.024V220.523M569.789 220.523H567.858" stroke="#624F41"/>
<path d="M564.478 214.024V229.911" stroke="#624F41"/>
<path d="M550.475 227.744V230.272" stroke="#624F41"/>
<path d="M549.508 233.16H555.785V227.383" stroke="#624F41"/>
<path d="M882.69 214.746V221.245M882.69 230.272V221.245M882.69 221.245H880.759" stroke="#624F41"/>
<path d="M880.759 233.16H888.002V221.245M888.002 214.746V221.245M888.002 221.245H886.07" stroke="#624F41"/>
<path d="M895.728 227.744V229.91" stroke="#624F41"/>
<path d="M894.279 233.16H902.005V227.383" stroke="#624F41"/>
<path d="M1440.41 289.124V303.205H1437.03V306.094H1444.75V289.124" stroke="#624F41"/>
<path d="M912.453 224.154C912.453 229.278 912.212 234.301 912.212 239.437C912.212 244.565 911.728 249.415 911.728 254.539C911.728 259.647 912.453 264.487 912.453 269.641C912.453 272.205 912.212 274.664 912.212 277.237C912.212 278.513 912.695 279.784 912.695 281.035C912.695 282.492 912.662 283.752 913.179 285.105" stroke="#624F41" stroke-linecap="round"/>
<path d="M912.453 223.973C914.385 223.973 915.818 223.093 917.532 222.486C919.539 221.775 921.374 220.904 923.324 220.084C925.892 219.004 928.383 217.855 930.957 216.818C933.423 215.825 935.883 214.752 938.281 213.663C939.95 212.905 941.902 212.335 943.656 211.714C945.108 211.2 946.63 210.45 948.117 210.046C949.684 209.62 951.161 208.758 952.726 208.238C953.795 207.882 955.71 207.563 956.529 207.012C957.594 206.295 959.328 205.955 960.588 205.484C961.94 204.979 963.167 204.366 964.579 203.897C965.905 203.456 967.16 202.878 968.449 202.45C969.766 202.012 971.584 201.551 972.682 200.822C973.595 200.215 975.099 200.064 976.014 199.516C976.684 199.115 978.044 198.475 978.863 198.3C979.963 198.065 980.935 197.263 982.008 197.034C982.872 196.849 984.257 196.137 985.018 195.758" stroke="#624F41" stroke-linecap="round"/>
<path d="M912.695 223.792C911.325 223.792 909.767 224.035 908.771 223.29C907.404 222.268 908.481 221.79 909.55 221.079C910.522 220.433 911.475 219.725 912.157 218.909C912.771 218.175 913.897 217.694 914.63 217.01C916.325 215.425 918.897 214.222 921.04 212.94C922.237 212.224 923.075 211.241 924.426 210.679C925.084 210.406 925.783 210.069 926.294 209.725C926.621 209.505 927.416 208.883 927.692 208.78" stroke="#624F41" stroke-linecap="round"/>
<path d="M927.692 208.78C929.057 207.873 930.066 206.872 931.186 205.796C932.4 204.628 934.206 203.468 935.62 202.41C937.153 201.263 938.656 200.059 940.162 198.933C941.064 198.259 941.966 197.484 942.877 196.803C943.581 196.276 943.994 195.586 944.677 195.075C946.148 193.976 947.669 192.731 948.978 191.508C949.971 190.579 951.148 189.895 952.31 189.026C953.886 187.847 955.344 186.539 957.081 185.529C958.516 184.695 959.805 182.991 961.555 182.555" stroke="#624F41" stroke-linecap="round"/>
<path d="M984.094 302.483V195.61V178.64" stroke="#624F41"/>
<path d="M992.302 178.279H980.713V109.317H982.162V12.5538L994.717 18.6917V28.8014M994.717 28.8014L995.682 109.317H1004.86V93.7918H1024.65V78.2663H1044.45V63.4629H1062.32V47.9374H1083.56V32.4119H1100.47V28.8014M994.717 28.8014H1100.47M1100.47 28.8014V15.0812H1124.61V32.4119H1143.92V47.9374H1163.72V63.4629H1182.55V78.2663H1203.32V93.7918H1224.56V109.317H1226.01V18.6917L1243.88 11.4706L1241.95 109.317H1244.84V177.557H1241.95V302.844H1223.6V240.742C1220.7 237.132 1219.73 236.049 1213.46 233.521H1191.73C1187.22 235.086 1178.21 238.72 1178.21 240.742V302.844H1165.65V240.742C1163.24 238.335 1157.64 233.521 1154.55 233.521C1151.46 233.521 1137.81 233.521 1131.37 233.521C1127.51 235.206 1119.68 239.009 1119.3 240.742V302.844H1109.16V240.742C1106.42 238.335 1100.08 233.521 1096.6 233.521C1093.13 233.521 1081.31 233.521 1075.84 233.521C1071.65 235.326 1063.19 239.298 1062.8 240.742C1062.42 242.187 1062.64 282.745 1062.8 302.844H1050.25L1048.32 240.742C1045.1 238.335 1038.08 233.521 1035.76 233.521C1033.44 233.521 1020.63 233.521 1014.51 233.521C1010.49 235.086 1002.35 238.72 1001.96 240.742V302.844H984.093L912.628 285.152M1181.11 302.844V242.548C1184 240.381 1190.47 236.049 1193.18 236.049H1211.04C1214.26 237.733 1220.7 241.392 1220.7 242.548V302.844M1181.11 302.844H1220.7M1181.11 302.844L1178.21 308.26H1225.05L1220.7 302.844M1260.3 144.701V148.673H1283.96V144.701H1307.62V148.673H1330.8V144.701H1353.97V148.673H1378.6V144.701H1401.29V148.673H1425.44V144.701H1448.62V148.673" stroke="#624F41"/>
<path d="M940.152 292.012V241.825H943.532V292.735" stroke="#624F41"/>
<path d="M956.086 295.623V207.164L958.501 206.442V296.345L956.086 295.623Z" stroke="#624F41"/>
<path d="M935.323 290.568V214.746L937.737 214.024V291.291" stroke="#624F41"/>
<path d="M922.769 287.68V220.523L925.183 219.44V288.402" stroke="#624F41"/>
<path d="M917.457 286.597V244.714H919.388V286.597" stroke="#624F41"/>
<path d="M1165.65 302.844H984.094" stroke="#624F41"/>
<path d="M962.847 220.162L981.679 215.468M962.847 220.162V215.468M962.847 220.162V224.314M981.679 215.468V210.233M981.679 215.468V220.162M962.847 215.468V211.497L968.642 209.497M962.847 215.468L981.679 210.233M981.679 210.233V204.998L975.161 207.247M962.847 228.466V232.799L968.642 231.799M962.847 228.466L981.679 224.856M962.847 228.466V224.314M981.679 224.856V229.549L975.161 230.674M981.679 224.856V220.162M962.847 224.314L981.679 220.162M968.642 209.497V231.799M968.642 209.497L975.161 207.247M968.642 231.799L975.161 230.674M975.161 207.247V230.674M939.187 219.079V236.41L954.639 233.521V213.302L939.187 219.079ZM926.632 223.773L934.358 221.245V236.41L926.632 237.493V223.773ZM913.594 227.383L921.32 224.856V238.576L913.594 240.02V227.383Z" stroke="#624F41"/>
<path d="M544.197 282.986H912.629" stroke="#624F41"/>
<path d="M925.666 210.052V99.2077L920.354 93.798M897.659 70.6841L920.354 93.798M920.354 93.798V6.77686" stroke="#624F41"/>
<path d="M907.799 222.328H891.382" stroke="#624F41"/>
<path d="M907.317 215.468H894.279V207.886M894.279 7.1377V201.026M894.279 207.886H878.344M894.279 207.886V201.026M894.279 201.026H876.896" stroke="#624F41"/>
<path d="M862.41 270.71H912.145" stroke="#624F41"/>
<path d="M963.33 244.353V273.599" stroke="#624F41"/>
<path d="M968.159 243.992V273.238" stroke="#624F41"/>
<path d="M975.402 243.631V273.066" stroke="#624F41"/>
<path d="M980.231 242.547V272.876" stroke="#624F41"/>
<path d="M963.33 243.992L980.23 242.547V272.876L963.33 273.237M949.568 245.436L944.981 245.797V271.071H949.568M949.568 245.436L954.155 245.075V271.071H949.568M949.568 245.436V271.071" stroke="#624F41"/>
<path d="M954.155 266.016L945.464 266.377H944.981V259.156L954.155 258.795V251.213L944.981 251.574" stroke="#624F41"/>
<path d="M980.23 257.897L962.847 258.602M980.23 264.95L962.847 265.655M980.23 250.491L962.847 251.196" stroke="#624F41"/>
<path d="M939.187 223.412L954.639 218.718V223.05L939.187 227.383V232.077L954.639 228.105V213.663" stroke="#624F41"/>
<path d="M929.529 223.05V237.132" stroke="#624F41"/>
<path d="M926.632 227.383L934.841 224.856" stroke="#624F41"/>
<path d="M926.632 230.994L934.841 228.827" stroke="#624F41"/>
<path d="M926.632 234.604L934.358 232.799" stroke="#624F41"/>
<path d="M918.422 225.939V238.937" stroke="#624F41"/>
<path d="M913.594 230.633L921.32 228.466V231.716L913.594 233.521V237.132L921.32 235.326" stroke="#624F41"/>
<path d="M949.809 215.107V234.604" stroke="#624F41"/>
<path d="M943.532 217.273V235.326" stroke="#624F41"/>
<path d="M920.838 268.544V247.241H921.803V268.544H920.838Z" stroke="#624F41"/>
<path d="M930.253 246.338L933.875 246.158V251.935M930.253 246.338L926.632 246.519V252.296M930.253 246.338V269.807M930.253 269.807L926.632 269.988V265.655M930.253 269.807L933.875 269.627V265.294M926.632 252.296L933.875 251.935M926.632 252.296V258.795M933.875 251.935V258.434M933.875 258.434L926.632 258.795M933.875 258.434V265.294M926.632 258.795V265.655M926.632 265.655L933.875 265.294" stroke="#624F41"/>
<path d="M517.557 291.876V240.102H514.105V292.621" stroke="#624F41"/>
<path d="M501.282 295.6V204.344L498.816 203.599V296.345L501.282 295.6Z" stroke="#624F41"/>
<path d="M522.488 290.386V212.166L520.023 211.421V291.131" stroke="#624F41"/>
<path d="M535.309 287.406V218.126L532.844 217.008V288.151" stroke="#624F41"/>
<path d="M540.735 286.288V243.081H538.762V286.288" stroke="#624F41"/>
<path d="M494.379 217.753L475.146 212.911M494.379 217.753V212.911M494.379 217.753V222.037M475.146 212.911V207.51M475.146 212.911V217.753M494.379 212.911V208.814L488.461 206.751M494.379 212.911L475.146 207.51M475.146 207.51V202.109L481.804 204.43M494.379 226.32V230.79L488.461 229.758M494.379 226.32L475.146 222.595M494.379 226.32V222.037M475.146 222.595V227.438L481.804 228.598M475.146 222.595V217.753M494.379 222.037L475.146 217.753M488.461 206.751V229.758M488.461 206.751L481.804 204.43M488.461 229.758L481.804 228.598M481.804 204.43V228.598M518.543 216.636V234.515L502.763 231.535V210.676L518.543 216.636ZM531.365 221.478L523.475 218.871V234.515L531.365 235.632V221.478ZM544.68 225.203L536.79 222.595V236.75L544.68 238.239V225.203Z" stroke="#624F41"/>
<path d="M493.885 242.709V272.879" stroke="#624F41"/>
<path d="M488.954 242.336V272.507" stroke="#624F41"/>
<path d="M481.557 241.964V272.33" stroke="#624F41"/>
<path d="M476.625 240.847V272.135" stroke="#624F41"/>
<path d="M493.885 242.337L476.625 240.847V272.135L493.885 272.507M507.94 243.826L512.624 244.199V270.272H507.94M507.94 243.826L503.255 243.454V270.272H507.94M507.94 243.826V270.272" stroke="#624F41"/>
<path d="M503.255 265.058L512.131 265.43H512.624V257.981L503.255 257.608V249.786L512.624 250.159" stroke="#624F41"/>
<path d="M476.626 256.681L494.379 257.409M476.626 263.958L494.379 264.685M476.626 249.041L494.379 249.769" stroke="#624F41"/>
<path d="M518.543 221.105L502.763 216.263V220.733L518.543 225.203V230.045L502.763 225.948V211.049" stroke="#624F41"/>
<path d="M528.405 220.733V235.26" stroke="#624F41"/>
<path d="M531.364 225.203L522.981 222.596" stroke="#624F41"/>
<path d="M531.364 228.927L522.981 226.693" stroke="#624F41"/>
<path d="M531.364 232.652L523.474 230.79" stroke="#624F41"/>
<path d="M539.748 223.713V237.122" stroke="#624F41"/>
<path d="M544.68 228.555L536.79 226.32V229.672L544.68 231.535V235.26L536.79 233.397" stroke="#624F41"/>
<path d="M507.693 212.539V232.652" stroke="#624F41"/>
<path d="M514.104 214.773V233.397" stroke="#624F41"/>
<path d="M537.282 267.665V245.689H536.296V267.665H537.282Z" stroke="#624F41"/>
<path d="M527.666 244.758L523.967 244.572V250.531M527.666 244.758L531.364 244.944V250.904M527.666 244.758V268.969M527.666 268.969L531.364 269.155V264.685M527.666 268.969L523.967 268.783V264.313M531.364 250.904L523.967 250.531M531.364 250.904V257.608M523.967 250.531V257.236M523.967 257.236L531.364 257.608M523.967 257.236V264.313M531.364 257.608V264.685M531.364 264.685L523.967 264.313" stroke="#624F41"/>
<path d="M1067.63 279.737V302.845" stroke="#624F41"/>
<path d="M1103.85 279.737V302.845" stroke="#624F41"/>
<path d="M1007.27 279.737V302.845" stroke="#624F41"/>
<path d="M1043.49 279.737V302.845" stroke="#624F41"/>
<path d="M1067.63 251.213V243.992C1070.21 241.946 1076.13 237.782 1079.22 237.493H1093.22C1096.76 239.178 1103.85 242.837 1103.85 243.992V251.213M1067.63 251.213V253.018M1067.63 251.213H1091.77M1103.85 251.213V253.018M1103.85 251.213H1091.77M1067.63 253.018V279.737H1103.85V253.018M1067.63 253.018H1078.25M1103.85 253.018H1093.22M1078.25 253.018C1078.25 256.629 1073.43 261.202 1070.53 263.128V274.682H1100.95V263.128C1097.89 260.962 1092.74 255.907 1093.22 253.018M1078.25 253.018H1093.22M1079.22 251.213C1081.63 248.926 1084.82 242.764 1084.05 239.298H1086.95C1087.59 242.668 1088.88 248.325 1091.77 251.213M1124.61 251.213V243.992C1127.18 241.946 1133.11 237.782 1136.2 237.493H1150.2C1153.74 239.178 1160.83 242.837 1160.83 243.992V251.213M1124.61 251.213V253.018M1124.61 251.213H1136.2M1160.83 251.213V253.018M1160.83 251.213H1148.75M1124.61 253.018V279.737H1160.83V253.018M1124.61 253.018H1135.23M1160.83 253.018H1150.2M1135.23 253.018C1135.23 256.629 1130.4 261.202 1127.51 263.128V274.682H1157.93V263.128C1154.87 260.962 1149.72 255.907 1150.2 253.018M1135.23 253.018H1150.2M1136.2 251.213C1138.61 248.926 1141.8 242.764 1141.03 239.298H1143.92C1144.57 242.668 1145.86 248.325 1148.75 251.213M1136.2 251.213H1148.75M1007.27 251.213V243.992C1009.85 241.946 1015.77 237.782 1018.86 237.493H1032.86C1036.41 239.178 1043.49 242.837 1043.49 243.992V251.213M1007.27 251.213V253.018M1007.27 251.213H1018.86M1043.49 251.213V253.018M1043.49 251.213H1031.42M1007.27 253.018V279.737H1043.49V253.018M1007.27 253.018H1017.89M1043.49 253.018H1032.86M1017.89 253.018C1017.89 256.629 1013.07 261.202 1010.17 263.128V274.682H1040.59V263.128C1037.53 260.962 1032.38 255.907 1032.86 253.018M1017.89 253.018H1032.86M1018.86 251.213C1021.28 248.926 1024.46 242.764 1023.69 239.298H1026.59C1027.23 242.668 1028.52 248.325 1031.42 251.213M1018.86 251.213H1031.42M1184.49 249.047V298.151H1217.8V249.047M1184.49 249.047V244.353C1187.38 242.307 1193.85 238.215 1196.56 238.215H1207.66C1211.04 239.659 1217.8 242.837 1217.8 243.992V249.047M1184.49 249.047H1217.8M1204.77 262.045V269.988H1215.39V262.045H1204.77ZM1204.77 251.213V259.156H1215.39V251.213H1204.77ZM1187.38 262.045V269.988H1198.01V262.045H1187.38ZM1187.38 251.213V259.156H1198.01V251.213H1187.38ZM1187.38 272.877V280.82H1198.01V272.877H1187.38ZM1204.77 272.877V280.82H1215.39V272.877H1204.77ZM1187.38 283.347V291.291H1198.01V283.347H1187.38ZM1204.77 283.347V291.291H1215.39V283.347H1204.77Z" stroke="#624F41"/>
<path d="M912.453 224.154C912.453 229.278 912.211 234.301 912.211 239.437C912.211 244.565 911.727 249.415 911.727 254.539C911.727 259.647 912.453 264.487 912.453 269.641C912.453 272.205 912.211 274.664 912.211 277.237C912.211 278.513 912.695 279.784 912.695 281.035C912.695 282.492 912.662 283.752 913.179 285.105" stroke="#624F41" stroke-linecap="round"/>
<path d="M912.452 223.973C914.384 223.973 915.818 223.093 917.532 222.486C919.538 221.775 921.374 220.904 923.324 220.084C925.892 219.004 928.382 217.855 930.956 216.818C933.423 215.825 935.883 214.752 938.28 213.663C939.95 212.905 941.902 212.335 943.655 211.714C945.108 211.2 946.63 210.45 948.117 210.046C949.684 209.62 951.161 208.758 952.726 208.238C953.795 207.882 955.71 207.563 956.529 207.012C957.593 206.295 959.328 205.955 960.587 205.484C961.94 204.979 963.166 204.366 964.578 203.897C965.905 203.456 967.16 202.878 968.448 202.45C969.765 202.012 971.584 201.551 972.681 200.822C973.594 200.215 975.098 200.064 976.014 199.516C976.684 199.115 978.044 198.475 978.863 198.3C979.962 198.065 980.935 197.263 982.007 197.034C982.872 196.849 984.257 196.137 985.017 195.758" stroke="#624F41" stroke-linecap="round"/>
<path d="M912.695 223.792C911.325 223.792 909.767 224.035 908.771 223.29C907.404 222.268 908.481 221.79 909.55 221.079C910.522 220.433 911.475 219.725 912.157 218.909C912.771 218.175 913.897 217.694 914.63 217.01C916.325 215.425 918.897 214.222 921.04 212.94C922.237 212.224 923.075 211.241 924.426 210.679C925.084 210.406 925.783 210.069 926.294 209.725C926.621 209.505 927.416 208.883 927.692 208.78" stroke="#624F41" stroke-linecap="round"/>
<path d="M927.691 208.78C929.057 207.873 930.066 206.873 931.185 205.796C932.4 204.628 934.205 203.468 935.62 202.41C937.153 201.264 938.656 200.06 940.162 198.933C941.064 198.259 941.965 197.485 942.876 196.803C943.581 196.277 943.993 195.586 944.677 195.075C946.147 193.976 947.669 192.731 948.977 191.508C949.97 190.579 951.147 189.895 952.31 189.026C953.886 187.847 955.343 186.539 957.08 185.529C958.515 184.695 959.805 182.992 961.555 182.555" stroke="#624F41" stroke-linecap="round"/>
<path d="M984.094 302.483V195.61V178.64" stroke="#624F41"/>
<path d="M992.302 178.279H980.713V109.317H982.161V12.5538L994.716 18.6917V28.8014M994.716 28.8014L995.682 109.317H1004.86V93.7918H1024.65V78.2663H1044.45V63.4629H1062.32V47.9374H1083.56V32.4119H1100.47V28.8014M994.716 28.8014H1100.47M1100.47 28.8014V15.0812H1124.61V32.4119H1143.92V47.9374H1163.72V63.4629H1182.55V78.2663H1203.32V93.7918H1224.56V109.317H1226.01V18.6917L1243.88 11.4706L1241.95 109.317H1244.84V177.557H1241.95V302.844H1223.6V240.742C1220.7 237.132 1219.73 236.049 1213.46 233.521H1191.73C1187.22 235.086 1178.21 238.72 1178.21 240.742V302.844H1165.65V240.742C1163.24 238.335 1157.64 233.521 1154.55 233.521C1151.46 233.521 1137.81 233.521 1131.37 233.521C1127.51 235.206 1119.68 239.009 1119.3 240.742V302.844H1109.16V240.742C1106.42 238.335 1100.08 233.521 1096.6 233.521C1093.13 233.521 1081.31 233.521 1075.84 233.521C1071.65 235.326 1063.19 239.298 1062.8 240.742C1062.41 242.187 1062.64 282.745 1062.8 302.844H1050.25L1048.31 240.742C1045.1 238.335 1038.08 233.521 1035.76 233.521C1033.44 233.521 1020.63 233.521 1014.51 233.521C1010.49 235.086 1002.35 238.72 1001.96 240.742V302.844H984.093L912.628 285.152M1181.1 302.844V242.548C1184 240.381 1190.47 236.049 1193.18 236.049H1211.04C1214.26 237.733 1220.7 241.392 1220.7 242.548V302.844M1181.1 302.844H1220.7M1181.1 302.844L1178.21 308.26H1225.05L1220.7 302.844M1260.3 144.701V148.673H1283.96V144.701H1307.62V148.673H1330.79V144.701H1353.97V148.673H1378.6V144.701H1401.29V148.673H1425.44V144.701H1448.62V148.673" stroke="#624F41"/>
<path d="M407.544 242.186V304.288H453.9V242.186C453.514 240.453 444.725 236.41 440.38 234.604H420.099C417.009 234.604 410.442 239.659 407.544 242.186Z" stroke="#624F41"/>
<path d="M230.813 242.186V304.288H277.169V242.186C276.783 240.453 267.995 236.409 263.649 234.604H243.368C240.278 234.604 233.711 239.659 230.813 242.186Z" stroke="#624F41"/>
<path d="M347.669 242.186V304.288H394.025V242.186C393.638 240.453 384.85 236.41 380.504 234.604H360.224C357.133 234.604 350.566 239.659 347.669 242.186Z" stroke="#624F41"/>
<path d="M290.689 242.186V304.288H337.045V242.186C336.659 240.453 327.871 236.41 323.525 234.604H303.244C300.154 234.604 293.587 239.659 290.689 242.186Z" stroke="#624F41"/>
<path d="M940.152 292.012V241.825H943.532V292.735" stroke="#624F41"/>
<path d="M956.086 295.623V207.164L958.501 206.442V296.345L956.086 295.623Z" stroke="#624F41"/>
<path d="M935.323 290.568V214.746L937.737 214.024V291.291" stroke="#624F41"/>
<path d="M922.769 287.68V220.523L925.183 219.44V288.402" stroke="#624F41"/>
<path d="M917.457 286.597V244.714H919.388V286.597" stroke="#624F41"/>
<path d="M1165.65 302.844H984.094" stroke="#624F41"/>
<path d="M962.847 220.162L981.679 215.468M962.847 220.162V215.468M962.847 220.162V224.314M981.679 215.468V210.233M981.679 215.468V220.162M962.847 215.468V211.497L968.642 209.497M962.847 215.468L981.679 210.233M981.679 210.233V204.998L975.161 207.247M962.847 228.466V232.799L968.642 231.799M962.847 228.466L981.679 224.856M962.847 228.466V224.314M981.679 224.856V229.549L975.161 230.674M981.679 224.856V220.162M962.847 224.314L981.679 220.162M968.642 209.497V231.799M968.642 209.497L975.161 207.247M968.642 231.799L975.161 230.674M975.161 207.247V230.674M939.187 219.079V236.41L954.639 233.521V213.302L939.187 219.079ZM926.632 223.773L934.358 221.245V236.41L926.632 237.493V223.773ZM913.594 227.383L921.32 224.856V238.576L913.594 240.02V227.383Z" stroke="#624F41"/>
<path d="M544.197 282.986H912.629" stroke="#624F41"/>
<path d="M925.666 210.052V99.2077L920.354 93.798M897.659 70.6841L920.354 93.798M920.354 93.798V6.77686" stroke="#624F41"/>
<path d="M907.799 222.328H891.381" stroke="#624F41"/>
<path d="M907.317 215.468H894.279V207.886M894.279 7.1377V201.026M894.279 207.886H878.344M894.279 207.886V201.026M894.279 201.026H876.896" stroke="#624F41"/>
<path d="M862.41 270.71H912.145" stroke="#624F41"/>
<path d="M963.329 244.353V273.599" stroke="#624F41"/>
<path d="M968.158 243.992V273.238" stroke="#624F41"/>
<path d="M975.402 243.631V273.066" stroke="#624F41"/>
<path d="M980.23 242.547V272.876" stroke="#624F41"/>
<path d="M963.33 243.992L980.23 242.547V272.876L963.33 273.237M949.568 245.436L944.981 245.797V271.071H949.568M949.568 245.436L954.155 245.075V271.071H949.568M949.568 245.436V271.071" stroke="#624F41"/>
<path d="M954.155 266.016L945.464 266.377H944.981V259.156L954.155 258.795V251.213L944.981 251.574" stroke="#624F41"/>
<path d="M980.231 257.897L962.847 258.602M980.231 264.95L962.847 265.655M980.231 250.491L962.847 251.196" stroke="#624F41"/>
<path d="M939.187 223.412L954.639 218.718V223.05L939.187 227.383V232.077L954.639 228.105V213.663" stroke="#624F41"/>
<path d="M929.529 223.051V237.132" stroke="#624F41"/>
<path d="M926.631 227.383L934.84 224.856" stroke="#624F41"/>
<path d="M926.631 230.994L934.84 228.827" stroke="#624F41"/>
<path d="M926.631 234.604L934.357 232.799" stroke="#624F41"/>
<path d="M918.422 225.939V238.937" stroke="#624F41"/>
<path d="M913.594 230.633L921.32 228.466V231.716L913.594 233.521V237.132L921.32 235.326" stroke="#624F41"/>
<path d="M949.809 215.107V234.604" stroke="#624F41"/>
<path d="M943.532 217.274V235.327" stroke="#624F41"/>
<path d="M920.837 268.544V247.241H921.803V268.544H920.837Z" stroke="#624F41"/>
<path d="M930.253 246.338L933.874 246.158V251.935M930.253 246.338L926.631 246.519V252.296M930.253 246.338V269.807M930.253 269.807L926.631 269.988V265.655M930.253 269.807L933.874 269.627V265.294M926.631 252.296L933.874 251.935M926.631 252.296V258.795M933.874 251.935V258.434M933.874 258.434L926.631 258.795M933.874 258.434V265.294M926.631 258.795V265.655M926.631 265.655L933.874 265.294" stroke="#624F41"/>
<path d="M1007.27 279.737V302.845" stroke="#624F41"/>
<path d="M1043.49 279.737V302.845" stroke="#624F41"/>
<path d="M1124.61 279.737V302.845" stroke="#624F41"/>
<path d="M1160.82 279.737V302.845" stroke="#624F41"/>
<path d="M474.664 193.805V303.205L544.68 285.153V282.986" stroke="#624F41"/>
<path d="M299.863 96.3192V89.098H305.175M299.863 96.3192H310.487M299.863 96.3192V101.013M310.487 96.3192V89.098H305.175M310.487 96.3192V101.013M299.863 101.013H310.487M299.863 101.013V106.068M310.487 101.013V106.068M299.863 106.068H310.487M299.863 106.068V111.123M310.487 106.068V111.123M299.863 111.123V118.705H305.175M299.863 111.123H310.487M310.487 111.123V118.705H305.175M305.175 89.098V118.705M319.661 96.3192V89.098H324.973M319.661 96.3192H324.973M319.661 96.3192V101.013M330.284 96.3192V89.098H324.973M330.284 96.3192H324.973M330.284 96.3192V101.013M324.973 96.3192V89.098M324.973 96.3192V101.013M319.661 101.013H324.973M319.661 101.013V106.068M330.284 101.013H324.973M330.284 101.013V106.068M324.973 101.013V106.068M319.661 106.068H324.973M319.661 106.068V111.123M330.284 106.068H324.973M330.284 106.068V111.123M324.973 106.068V111.123M319.661 111.123V118.705H324.973M319.661 111.123H324.973M330.284 111.123V118.705H324.973M330.284 111.123H324.973M324.973 111.123V118.705M339.459 96.3192V89.098H344.771M339.459 96.3192H344.771M339.459 96.3192V101.013M350.082 96.3192V89.098H344.771M350.082 96.3192H344.771M350.082 96.3192V101.013M344.771 96.3192V89.098M344.771 96.3192V101.013M339.459 101.013H344.771M339.459 101.013V106.068M350.082 101.013H344.771M350.082 101.013V106.068M344.771 101.013V106.068M339.459 106.068H344.771M339.459 106.068V111.123M350.082 106.068H344.771M350.082 106.068V111.123M344.771 106.068V111.123M339.459 111.123V118.705H344.771M339.459 111.123H344.771M350.082 111.123V118.705H344.771M350.082 111.123H344.771M344.771 111.123V118.705M358.774 96.3192V89.098H364.085M358.774 96.3192H364.085M358.774 96.3192V101.013M369.397 96.3192V89.098H364.085M369.397 96.3192H364.085M369.397 96.3192V101.013M364.085 96.3192V89.098M364.085 96.3192V101.013M358.774 101.013H364.085M358.774 101.013V106.068M369.397 101.013H364.085M369.397 101.013V106.068M364.085 101.013V106.068M358.774 106.068H364.085M358.774 106.068V111.123M369.397 106.068H364.085M369.397 106.068V111.123M364.085 106.068V111.123M358.774 111.123V118.705H364.085M358.774 111.123H364.085M369.397 111.123V118.705H364.085M369.397 111.123H364.085M364.085 111.123V118.705M378.572 96.3192V89.098H383.883M378.572 96.3192H383.883M378.572 96.3192V101.013M389.195 96.3192V89.098H383.883M389.195 96.3192H383.883M389.195 96.3192V101.013M383.883 96.3192V89.098M383.883 96.3192V101.013M378.572 101.013H383.883M378.572 101.013V106.068M389.195 101.013H383.883M389.195 101.013V106.068M383.883 101.013V106.068M378.572 106.068H383.883M378.572 106.068V111.123M389.195 106.068H383.883M389.195 106.068V111.123M383.883 106.068V111.123M378.572 111.123V118.705H383.883M378.572 111.123H383.883M389.195 111.123V118.705H383.883M389.195 111.123H383.883M383.883 111.123V118.705M0 74.6557H213.429V11.8317L231.779 18.6918V109.317H211.015V120.149H231.779" stroke="#624F41"/>
<path d="M231.779 29.1624H331.251V25.1908M331.251 25.1908V15.0812H355.394V25.1908M331.251 25.1908H355.394M331.251 25.1908V33.1341H312.902V47.5764H293.104V63.4629H274.755V78.9884H252.543V94.875H231.779V104.985H252.543M355.394 25.1908V33.1341H375.192V47.5764H394.99V63.4629H411.89V78.9884H432.171V94.875H451.486V108.956H474.181V11.8317L459.695 19.0528V29.1624H355.394V25.1908Z" stroke="#624F41"/>
<path d="M253.026 88.7371H276.203" stroke="#624F41"/>
<path d="M275.238 72.8503H294.07" stroke="#624F41"/>
<path d="M293.587 57.3248H312.902" stroke="#624F41"/>
<path d="M312.901 41.4386H331.251" stroke="#624F41"/>
<path d="M356.36 41.4386H375.192" stroke="#624F41"/>
<path d="M394.99 57.3248H374.226" stroke="#624F41"/>
<path d="M411.407 73.2114H393.541" stroke="#624F41"/>
<path d="M432.171 88.7371H412.856" stroke="#624F41"/>
<path d="M451.486 104.263H432.171" stroke="#624F41"/>
<path d="M474.664 166.004V118.705H477.078V108.957H474.664" stroke="#624F41"/>
<path d="M213.429 74.2948V109.317" stroke="#624F41"/>
<path d="M213.429 120.149V304.289H229.364" stroke="#624F41"/>
<path d="M0 144.701H213.429V148.673H0" stroke="#624F41"/>
<path d="M213.429 153.005H0" stroke="#624F41"/>
<path d="M8.69141 144.701V148.673H31.8693V144.701H55.0471V148.673H78.7078V144.701H102.369V148.673H126.029V144.701H149.207V148.673H172.868V144.701H196.529V148.673" stroke="#624F41"/>
<path d="M610.834 279.737H587.656V254.101C591.358 251.093 601.176 246.88 610.834 254.101" stroke="#624F41"/>
<path d="M413.339 243.992V279.737H447.623V243.992C447.623 242.837 441.185 239.659 437.965 238.215H422.996C421.451 238.215 415.914 242.066 413.339 243.992Z" stroke="#624F41"/>
<path d="M297.45 243.992V279.737H331.734V243.992C331.734 242.837 325.295 239.659 322.076 238.215H307.107C305.562 238.215 300.025 242.066 297.45 243.992Z" stroke="#624F41"/>
<path d="M228.399 304.289H454.383" stroke="#624F41"/>
<path d="M353.463 243.992V279.737H387.747V243.992C387.747 242.837 381.308 239.659 378.089 238.215H363.12C361.575 238.215 356.038 242.066 353.463 243.992Z" stroke="#624F41"/>
<path d="M453.9 304.289H474.18" stroke="#624F41"/>
<path d="M356.36 276.487V253.019H385.332V276.487H356.36Z" stroke="#624F41"/>
<path d="M300.347 276.848V253.379H329.319V276.848H300.347Z" stroke="#624F41"/>
<path d="M416.236 276.848V253.379H445.208V276.848H416.236Z" stroke="#624F41"/>
<path d="M237.573 245.075V298.872H268.96C269.121 281.542 269.346 246.519 268.96 245.075C268.574 243.631 263.326 240.862 260.751 239.659H244.333C243.175 239.659 239.344 243.27 237.573 245.075Z" stroke="#624F41"/>
<path d="M238.056 250.852H268.96" stroke="#624F41"/>
<path d="M240.953 262.406V253.379H251.094V262.406H240.953Z" stroke="#624F41"/>
<path d="M241.436 273.96V264.933H251.577V273.96H241.436Z" stroke="#624F41"/>
<path d="M255.922 297.067V288.041H266.063V297.067H255.922Z" stroke="#624F41"/>
<path d="M255.922 285.514V276.487H266.063V285.514H255.922Z" stroke="#624F41"/>
<path d="M241.436 297.067V288.041H251.577V297.067H241.436Z" stroke="#624F41"/>
<path d="M241.436 285.514V276.487H251.577V285.514H241.436Z" stroke="#624F41"/>
<path d="M255.922 273.96V264.933H266.063V273.96H255.922Z" stroke="#624F41"/>
<path d="M255.922 262.406V253.379H266.063V262.406H255.922Z" stroke="#624F41"/>
<path d="M167.557 305.733L173.351 301.039H206.187L212.947 305.733H167.557Z" stroke="#624F41"/>
<path d="M0 304.289H169.005" stroke="#624F41"/>
<path d="M357.809 120.149V134.952" stroke="#624F41"/>
<path d="M357.809 87.2927V50.4648H361.672V46.8542" stroke="#624F41"/>
<path d="M366.983 46.8542V50.1038M366.983 50.1038H370.363M366.983 50.1038V78.9884H358.292" stroke="#624F41"/>
<path d="M377.606 121.232V133.869" stroke="#624F41"/>
<path d="M378.089 87.6538V65.6293H380.986V62.0187" stroke="#624F41"/>
<path d="M386.298 62.3798V65.2682M386.298 65.2682H389.678M386.298 65.2682V85.4875H380.504" stroke="#624F41"/>
<path d="M397.404 76.4609V80.0715H394.024V135.313" stroke="#624F41"/>
<path d="M402.233 76.822V80.0715M402.233 80.0715H405.613M402.233 80.0715V134.591" stroke="#624F41"/>
<path d="M417.685 91.9863V95.2358H413.339V135.313" stroke="#624F41"/>
<path d="M413.821 127.009H423.962V94.5137M423.962 91.9863V94.5137M423.962 94.5137H426.859" stroke="#624F41"/>
<path d="M436.517 133.869V111.484H439.414V108.595" stroke="#624F41"/>
<path d="M437 126.648H444.725V111.123M444.725 108.595V111.123M444.725 111.123H447.623" stroke="#624F41"/>
<path d="M456.315 125.204V128.092H451.969V159.504M451.969 168.892V159.504M451.969 159.504H461.626V128.092M461.626 125.204V128.092M461.626 128.092H465.006" stroke="#624F41"/>
<path d="M276.687 152.283C276.687 149.635 278.618 144.34 286.344 144.34C289.563 144.46 296.001 146.217 296.001 152.283" stroke="#624F41"/>
<path d="M296.001 152.283C295.679 154.57 293.49 159.143 287.31 159.143C283.93 159.143 277.073 157.771 276.687 152.283" stroke="#624F41"/>
<path d="M334.147 151.561C334.147 148.914 336.079 143.618 343.805 143.618C347.024 143.738 353.462 145.496 353.462 151.561" stroke="#624F41"/>
<path d="M353.462 151.561C353.14 153.848 350.951 158.421 344.771 158.421C341.39 158.421 334.534 157.049 334.147 151.561" stroke="#624F41"/>
<path d="M392.092 152.283C392.092 149.635 394.023 144.34 401.749 144.34C404.968 144.46 411.406 146.217 411.406 152.283" stroke="#624F41"/>
<path d="M411.406 152.283C411.085 154.57 408.895 159.143 402.715 159.143C399.335 159.143 392.478 157.771 392.092 152.283" stroke="#624F41"/>
<path d="M474.663 118.705H452.451" stroke="#624F41"/>
<path d="M459.694 29.1627V108.956" stroke="#624F41"/>
<path d="M459.694 35.6616L474.18 28.8015" stroke="#624F41"/>
<path d="M460.177 50.104L474.18 43.605" stroke="#624F41"/>
<path d="M459.694 64.5465L474.18 57.6864" stroke="#624F41"/>
<path d="M460.177 80.4329L474.18 73.5728" stroke="#624F41"/>
<path d="M212 26L231 35.1667" stroke="#624F41"/>
<path d="M212 44.7916L231 53.9583" stroke="#624F41"/>
<path d="M212 63.5834L231 72.2917" stroke="#624F41"/>
<path d="M212 83.2916L231 92" stroke="#624F41"/>
</svg>
