<svg width="389" height="578" viewBox="0 0 389 578" fill="none" xmlns="http://www.w3.org/2000/svg">
<path d="M36.8692 448.032C46.8615 456.101 53.0808 465.99 53.8121 484.525C54.401 498.986 50.175 505.488 43.3926 505.222C43.3926 505.442 43.4056 505.656 43.4121 505.876C52.3948 510.753 57.2744 521.529 57.9151 536.871C58.8859 559.543 51.0422 565.883 39.1731 565.955C32.7402 565.89 26.3074 565.825 19.881 565.747C19.881 564.925 19.881 564.109 19.881 563.286C21.13 563.319 22.3791 563.351 23.6281 563.384C23.4404 521.794 23.2528 480.199 23.0716 438.61C22.0037 437.645 20.9424 436.673 19.8875 435.689C19.8875 434.866 19.8875 434.05 19.8875 433.228C25.3755 438.454 31.0447 443.389 36.8757 448.032H36.8692ZM36.235 502.528C36.5909 502.677 36.9533 502.826 37.3157 502.968C41.1599 504.477 41.037 494.971 40.694 481.772C40.5969 478.029 40.4998 474.286 40.4027 470.543C40.0662 457.513 39.3543 452.151 36.5132 449.904C36.0602 449.548 35.6072 449.191 35.1542 448.829C35.5166 466.729 35.8725 484.622 36.235 502.522V502.528ZM37.4711 563.72C38.2735 563.74 39.0825 563.759 39.885 563.779C43.9622 563.811 44.1757 553.236 43.7874 539.189C43.6903 535.698 43.5933 532.214 43.5027 528.724C43.1208 514.677 42.2407 507.463 36.9533 505.345C36.7333 505.261 36.5132 505.17 36.2932 505.086C36.688 524.631 37.0828 544.176 37.4711 563.72Z" fill="#1A1A1A"/>
<path d="M99.1721 484.454C99.2044 484.959 99.2368 485.47 99.2692 485.975C98.2078 485.554 97.1529 485.127 96.098 484.687C97.1917 501.822 98.2855 518.958 99.3792 536.1C100.848 558.986 95.5156 567.34 84.5461 567.509C78.165 567.593 72.8129 561.648 72.2758 551.014C71.8616 542.939 73.9196 538.075 77.6537 538.723C81.8927 539.435 83.8148 544.208 84.1772 550.406C84.326 552.996 84.0672 555.036 83.763 557.484C82.7664 557.426 81.7697 557.374 80.7731 557.316C80.5854 558.494 80.4689 559.809 80.5401 561.007C80.7084 564.064 81.8992 565.935 83.7501 565.942C86.9341 565.955 87.1736 562.373 85.9763 542.298C84.7079 521.011 83.4394 499.724 82.1774 478.437C80.7472 477.744 79.3234 477.032 77.8997 476.307C77.8673 475.737 77.8349 475.173 77.8026 474.603C84.7985 478.23 91.9238 481.513 99.1656 484.454H99.1721Z" fill="#1A1A1A"/>
<path d="M147.703 498.688C148.221 505.203 148.732 511.705 149.237 518.194C149.017 518.161 148.791 518.135 148.57 518.103C144.099 506.394 139.355 498.377 132.094 496.557C131.912 496.512 131.738 496.467 131.556 496.421C132.197 507.424 132.838 518.427 133.485 529.423C133.75 529.462 134.009 529.494 134.275 529.533C139.316 530.187 142.073 524.171 142.837 517.268C143.011 517.294 143.192 517.319 143.367 517.352C143.872 527.079 144.377 536.812 144.888 546.539C144.713 546.526 144.539 546.513 144.37 546.507C142.241 536.644 138.306 531.703 134.372 531.165C134.113 531.133 133.847 531.094 133.589 531.062C134.255 542.472 134.922 553.883 135.588 565.294C135.97 565.294 136.352 565.3 136.74 565.307C144.506 565.255 150.505 553.449 152.11 545.445C152.331 545.458 152.544 545.471 152.764 545.484C152.913 552.543 153.068 559.608 153.224 566.68C141.581 566.647 129.945 566.602 118.309 566.55C118.277 566.078 118.251 565.598 118.218 565.126C119.344 565.139 120.477 565.152 121.603 565.164C120.063 540.873 118.516 516.588 116.976 492.296C115.804 491.927 114.639 491.551 113.475 491.163C113.442 490.69 113.416 490.211 113.384 489.738C124.645 493.539 136.119 496.525 147.723 498.701L147.703 498.688Z" fill="#1A1A1A"/>
<path d="M186.203 534.002C186.313 544.545 186.423 555.088 186.533 565.631C187.685 565.631 188.837 565.631 189.983 565.631C189.983 565.993 189.983 566.356 189.989 566.725C182.942 566.725 175.9 566.719 168.853 566.706C168.84 566.33 168.827 565.961 168.82 565.585C170.056 565.585 171.293 565.592 172.529 565.598C171.966 544.778 171.403 523.957 170.846 503.137C169.519 503.014 168.193 502.878 166.872 502.735C166.859 502.334 166.846 501.926 166.834 501.524C173.558 502.263 180.301 502.742 187.058 502.943C201.962 503.299 208.071 504.633 207.845 518.174C207.67 528.704 201.554 532.357 195.05 533.438V533.62C203.036 535.142 207.081 538.917 206.926 548.806C206.9 550.483 206.874 552.154 206.854 553.831C206.757 560.32 206.796 562.328 208.654 562.321C209.618 562.321 210.589 561.674 211.449 554.226C211.747 554.285 212.051 554.337 212.355 554.395C211.132 565.993 207.929 567.625 203.081 567.625C196.014 567.625 191.989 563.72 191.924 551.254C191.918 548.709 191.905 546.157 191.898 543.612C191.879 536.786 190.468 534.06 187.213 534.008C186.883 534.008 186.546 533.995 186.216 533.989L186.203 534.002ZM186.19 532.726C186.41 532.726 186.63 532.732 186.857 532.739C190.779 532.804 192.235 529.436 192.209 520.978C192.209 519.036 192.196 517.099 192.19 515.156C192.164 505.967 190.507 504.244 186.579 504.121C186.352 504.115 186.119 504.108 185.893 504.095C185.99 513.635 186.093 523.18 186.19 532.719V532.726Z" fill="#1A1A1A"/>
<path d="M250.907 560.981C250.965 559.971 251.024 558.863 251.03 557.652C251.444 550.321 251.859 542.991 252.273 535.666C251.03 535.802 249.788 535.938 248.545 536.061C248.571 535.595 248.597 535.129 248.623 534.669C255.088 533.976 261.534 533.153 267.947 532.201C267.915 532.7 267.882 533.199 267.85 533.697C267.177 533.795 266.504 533.885 265.837 533.976C265.164 544.804 264.485 555.632 263.812 566.466C263.643 566.466 263.469 566.466 263.3 566.466C262.459 564.562 261.741 563.843 260.078 563.869C258.731 563.889 256.835 564.646 255.198 565.372C252.771 566.421 249.768 567.632 246.519 567.625C233.117 567.489 225.279 556.81 225.991 534.792C226.71 512.177 236.514 499.135 250.389 495.89C254.79 494.893 258.071 495.333 260.162 495.709C261.333 495.91 262.381 496.039 263.119 495.838C263.851 495.638 264.232 494.822 264.912 493.287C265.113 493.229 265.313 493.17 265.514 493.112C265.242 500.715 264.97 508.337 264.692 515.979C264.472 516.024 264.252 516.07 264.032 516.115C259.916 504.898 255.877 495.612 251.075 496.719C244.979 498.124 242.261 508.111 241.53 523.362C241.232 529.423 240.941 535.491 240.643 541.553C239.931 556.305 241.556 566.401 246.966 566.434C250.092 566.427 250.713 564.504 250.914 560.968L250.907 560.981Z" fill="#1A1A1A"/>
<path d="M318.42 471.126C318.116 480.082 317.818 489.071 317.52 498.092C317.313 498.176 317.106 498.26 316.899 498.338C314.051 484.13 310.628 476.987 303.774 480.244C303.606 480.322 303.438 480.4 303.27 480.477C302.448 493.941 301.619 507.405 300.797 520.868C301.05 520.804 301.309 520.739 301.561 520.681C306.46 519.521 309.91 510.358 311.515 500.411C311.683 500.346 311.851 500.287 312.019 500.223C311.282 513.265 310.544 526.308 309.806 539.351C309.638 539.377 309.469 539.403 309.301 539.429C308.46 526.587 305.263 521.749 301.445 522.688C301.192 522.746 300.933 522.811 300.681 522.869C299.827 536.832 298.972 550.794 298.118 564.763C298.5 564.763 298.882 564.75 299.264 564.744C307.056 564.886 314.524 548.268 317.009 536.003C317.216 535.964 317.43 535.925 317.637 535.886C316.944 546.041 316.245 556.163 315.546 566.259C303.923 566.35 292.294 566.427 280.658 566.492C280.69 565.993 280.722 565.501 280.755 565.003C281.881 564.99 283.007 564.977 284.139 564.957C285.828 538.8 287.511 512.644 289.2 486.487C288.055 486.934 286.903 487.381 285.751 487.808C285.783 487.309 285.815 486.817 285.848 486.319C296.979 482.064 307.871 477 318.433 471.119L318.42 471.126Z" fill="#1A1A1A"/>
<path d="M369.876 482.64C369.701 482.737 369.533 482.834 369.358 482.932C366.711 461.632 362.984 445.28 358.978 445.28C358.395 484.719 357.819 524.165 357.237 563.604C358.933 563.565 360.622 563.52 362.317 563.481C362.311 564.264 362.304 565.048 362.298 565.831C354.279 565.916 346.255 566 338.223 566.071C338.249 565.391 338.268 564.711 338.294 564.031C339.97 563.999 341.647 563.96 343.316 563.921C344.384 527.61 345.452 491.299 346.52 454.988C342.151 461.477 337.337 480.82 333.771 500.067C333.609 500.132 333.447 500.203 333.285 500.268C334.127 487.089 334.961 473.839 335.79 460.512C347.413 452.747 358.538 443.92 369.022 434.037C369.287 450.137 369.572 466.334 369.883 482.634L369.876 482.64Z" fill="#1A1A1A"/>
<path d="M48.7188 89.7062C48.3629 99.4008 48.0069 109.095 47.651 118.79C46.7191 146.663 49.4954 158.553 58.2969 150.27C66.8072 142.097 78.0485 115.338 84.3131 101.046C84.6108 100.903 84.9085 100.754 85.2062 100.612C84.106 111.097 83.0058 121.64 81.9121 132.241C81.6921 132.383 81.472 132.532 81.252 132.681C80.3071 131.25 79.1422 131.49 77.9385 132.306C76.5212 133.271 74.8515 134.954 72.8712 137.072C69.2405 140.912 63.6231 147.142 57.6951 152.589C35.9826 173.998 26.4368 168.656 25.9256 121.083C25.5437 72.0849 40.0662 43.4154 63.5843 40.5206C70.4184 39.3355 75.0909 40.4947 78.3397 41.1876C80.0741 41.5956 81.8215 41.8417 83.2712 41.5956C85.1738 41.2718 85.8016 40.2162 86.8241 38.3058C87.1606 38.254 87.4972 38.2022 87.8337 38.1569C87.413 48.0069 86.9859 57.8117 86.5588 67.5646C86.1834 67.6812 85.8145 67.7912 85.4456 67.9078C79.7247 54.1074 71.2273 40.8379 63.2801 42.1137C54.9899 43.4025 49.7931 59.0033 48.7188 89.7062Z" fill="#1A1A1A"/>
<path d="M149.082 79.4805C141.587 80.8081 134.164 82.466 126.832 84.4541C123.02 93.6825 119.163 103.267 115.287 113.273C118.16 112.081 121.059 110.961 123.978 109.905C123.946 110.352 123.913 110.799 123.874 111.246C118.516 113.208 113.229 115.39 108.025 117.812C108.064 117.339 108.103 116.86 108.142 116.387C109.76 115.649 111.378 114.93 113.009 114.231C125.001 83.1071 136.818 56.0567 147.865 31.2275C151.638 30.9944 155.411 30.7936 159.197 30.6187C167.494 53.7123 176.709 75.4459 186.96 97.6393C188.585 97.5746 190.209 97.5292 191.834 97.5033C191.834 97.8919 191.834 98.2869 191.834 98.6755C177.369 98.9151 162.925 100.651 148.771 103.889C148.797 103.474 148.816 103.06 148.842 102.652C151.599 102.03 154.376 101.46 157.152 100.949C154.369 93.8897 151.677 86.7531 149.082 79.487V79.4805ZM127.434 82.6602C134.397 80.8275 141.452 79.2862 148.564 78.0299C145.716 69.7017 142.985 61.1986 140.351 52.4495C136.125 62.1182 131.809 72.1626 127.434 82.6602Z" fill="#1A1A1A"/>
<path d="M276.289 34.7375C277.338 43.1434 278.386 51.5882 279.441 60.0847C279.098 60.007 278.748 59.9293 278.405 59.8516C271.092 43.532 264.187 34.8023 249.438 33.6819C248.979 33.6495 248.513 33.6107 248.053 33.5783C248.862 45.682 249.671 57.7922 250.48 69.896C251.037 69.9996 251.6 70.1032 252.156 70.2068C260.673 71.8841 267.455 67.0141 268.86 58.6665C269.209 58.7377 269.559 58.8025 269.908 58.8737C270.788 70.1874 271.675 81.5075 272.555 92.8212C272.16 92.6916 271.765 92.5621 271.371 92.4326C267.617 79.9273 260.524 73.393 252.389 71.8388C251.787 71.7222 251.192 71.6056 250.59 71.4955C251.347 82.7833 252.098 94.071 252.855 105.365C257.728 106.751 262.563 108.312 267.339 110.06C267.378 110.546 267.41 111.032 267.449 111.511C251.638 105.663 235.233 101.803 218.633 99.9448C218.62 99.5174 218.607 99.09 218.594 98.6561C220.846 98.9086 223.098 99.1936 225.338 99.5109C224.451 77.0585 223.558 54.606 222.671 32.1471C220.62 32.0694 218.562 31.9981 216.504 31.9399C216.491 31.5124 216.478 31.085 216.465 30.6511C236.559 31.2145 256.576 32.5745 276.296 34.7375H276.289Z" fill="#1A1A1A"/>
<path d="M360.11 49.328C360.525 62.0794 360.919 74.9019 361.295 87.8087C360.965 87.6339 360.628 87.4655 360.298 87.2906C354.228 62.3708 346.966 48.3048 335.194 45.8893C334.903 45.8245 334.612 45.7662 334.321 45.7015C335.097 63.1609 335.867 80.6138 336.644 98.0732C337.058 98.2999 337.472 98.533 337.887 98.7662C345.795 103.403 350.105 95.2497 351.6 83.0035C351.872 83.133 352.144 83.2625 352.416 83.392C352.784 101.182 353.147 118.978 353.516 136.768C353.263 136.541 353.011 136.321 352.759 136.094C350.034 116.135 344.197 104.873 337.997 101.376C337.582 101.136 337.175 100.903 336.761 100.664C337.563 118.771 338.366 136.878 339.168 154.978C339.757 155.548 340.339 156.118 340.915 156.694C352.629 169.031 360.971 157.912 363.773 143.457C364.071 143.755 364.369 144.053 364.666 144.351C364.427 158.456 364.213 172.489 364.013 186.445C349.063 165.01 331.014 147.498 311.003 133.912C310.958 133.322 310.919 132.727 310.874 132.137C312.815 133.432 314.737 134.767 316.64 136.139C314.479 104.459 312.317 72.7778 310.155 41.097C308.188 40.7602 306.208 40.4364 304.234 40.1191C304.189 39.5298 304.15 38.934 304.104 38.3447C323.235 41.2265 341.97 44.8855 360.11 49.3216V49.328ZM337.045 10.3617C339.123 10.5301 341.194 10.6984 343.265 10.8798C348.351 11.21 348.921 16.5916 348.96 18.3725C349.076 23.3721 347.51 27.3354 344.378 29.0386C338.644 32.0759 332.955 34.7569 327.273 37.166C327.072 36.8228 326.872 36.486 326.671 36.1493C330.049 28.1319 333.492 19.5641 337.039 10.3617H337.045Z" fill="#1A1A1A"/>
<path d="M194.5 478.547C148.396 478.547 104.79 460.868 71.7063 428.766C37.141 395.214 18.1078 350.205 18.1078 302.036C18.1078 204.708 97.237 125.525 194.5 125.525C291.763 125.525 370.892 204.708 370.892 302.036C370.892 349.907 352.053 394.715 317.857 428.222C284.702 460.673 240.895 478.547 194.5 478.547Z" fill="#333333"/>
<path d="M367.145 229.045C357.709 206.709 344.196 186.659 326.995 169.446C309.793 152.232 289.763 138.717 267.436 129.268C244.325 119.49 219.778 114.522 194.493 114.522C169.209 114.522 144.662 119.49 121.551 129.268C99.2303 138.71 79.194 152.232 61.9922 169.446C44.7905 186.659 31.2841 206.702 21.8419 229.045C12.0697 252.171 7.1059 276.734 7.1059 302.036C7.1059 327.338 12.2509 352.86 22.4114 376.381C32.2225 399.08 46.2272 419.369 64.0373 436.66C99.1915 470.757 145.516 489.544 194.487 489.544C243.458 489.544 290.307 470.562 325.526 436.084C343.167 418.806 357.023 398.594 366.724 375.999C376.762 352.582 381.868 327.707 381.868 302.036C381.868 276.365 376.904 252.171 367.132 229.045H367.145ZM310.168 420.36C301.102 410.478 293.109 400.084 286.074 389.528C272.561 369.238 262.582 348.346 255.269 329.268C252.079 320.972 249.393 313.007 247.141 305.598C241.407 301.719 236.081 297.451 231.214 292.853C231.007 292.646 230.625 292.808 230.625 293.099C230.314 302.742 228.923 312.566 226.405 322.371C226.334 322.669 225.829 322.811 225.616 322.591C218.562 315.325 212.498 307.489 207.502 299.258C207.353 299.012 206.945 299.064 206.867 299.342C204.149 308.577 200.318 317.702 195.406 326.529C195.257 326.794 194.746 326.794 194.597 326.529C189.679 317.695 185.854 308.577 183.123 299.342C183.045 299.064 182.65 299.018 182.501 299.258C177.492 307.476 171.441 315.325 164.387 322.578C164.18 322.798 163.669 322.669 163.598 322.371C161.074 312.566 159.689 302.742 159.385 293.099C159.372 292.801 159.003 292.646 158.783 292.847C153.923 297.445 148.603 301.725 142.856 305.605C132.689 339.04 113.766 383.628 79.3558 420.878C48.3564 390.784 29.0967 348.664 29.0967 302.043C29.0967 210.627 103.146 136.528 194.5 136.528C285.854 136.528 359.903 210.627 359.903 302.043C359.903 348.411 340.851 390.311 310.168 420.367V420.36Z" fill="#624F41"/>
<path d="M167.241 241.848C165.326 241.848 163.772 240.294 163.772 238.377C163.772 231.046 166.601 227.277 169.092 223.948C171.286 221.014 173.027 218.703 173.027 213.684C173.027 208.665 171.293 206.353 169.092 203.419C166.601 200.09 163.772 196.321 163.772 188.99C163.772 181.66 166.601 177.89 169.092 174.562C171.286 171.628 173.027 169.316 173.027 164.297C173.027 162.38 174.58 160.826 176.496 160.826C178.411 160.826 179.965 162.38 179.965 164.297C179.965 171.628 177.136 175.397 174.645 178.726C172.451 181.66 170.71 183.971 170.71 188.99C170.71 194.009 172.444 196.321 174.645 199.255C177.136 202.584 179.965 206.353 179.965 213.684C179.965 221.014 177.136 224.784 174.645 228.112C172.451 231.046 170.71 233.358 170.71 238.37C170.71 240.287 169.157 241.841 167.241 241.841V241.848Z" fill="#624F41"/>
<path d="M190.378 241.848C188.462 241.848 186.909 240.294 186.909 238.377C186.909 231.046 189.737 227.277 192.228 223.948C194.422 221.014 196.163 218.703 196.163 213.684C196.163 208.665 194.429 206.353 192.228 203.419C189.737 200.09 186.909 196.321 186.909 188.99C186.909 181.66 189.737 177.89 192.228 174.562C194.422 171.628 196.163 169.316 196.163 164.297C196.163 162.38 197.716 160.826 199.632 160.826C201.548 160.826 203.101 162.38 203.101 164.297C203.101 171.628 200.273 175.397 197.781 178.726C195.587 181.66 193.846 183.971 193.846 188.99C193.846 194.009 195.581 196.321 197.781 199.255C200.273 202.584 203.101 206.353 203.101 213.684C203.101 221.014 200.273 224.784 197.781 228.112C195.587 231.046 193.846 233.358 193.846 238.37C193.846 240.287 192.293 241.841 190.378 241.841V241.848Z" fill="#624F41"/>
<path d="M213.507 241.848C211.592 241.848 210.038 240.294 210.038 238.377C210.038 231.046 212.867 227.277 215.358 223.948C217.552 221.014 219.293 218.703 219.293 213.684C219.293 208.665 217.559 206.353 215.358 203.419C212.867 200.09 210.038 196.321 210.038 188.99C210.038 181.66 212.867 177.89 215.358 174.562C217.552 171.628 219.293 169.316 219.293 164.297C219.293 162.38 220.846 160.826 222.762 160.826C224.677 160.826 226.231 162.38 226.231 164.297C226.231 171.628 223.403 175.397 220.911 178.726C218.717 181.66 216.976 183.971 216.976 188.99C216.976 194.009 218.711 196.321 220.911 199.255C223.403 202.584 226.231 206.353 226.231 213.684C226.231 221.014 223.403 224.784 220.911 228.112C218.717 231.046 216.976 233.358 216.976 238.37C216.976 240.287 215.423 241.841 213.507 241.841V241.848Z" fill="#624F41"/>
<path d="M304.978 303.131C262.226 277.978 240.307 341.851 262.375 375.17C273.137 391.827 293.989 394.56 308.305 380.487C328.736 360.774 330.962 319.483 305.179 303.26L304.978 303.131ZM308.473 343.593C307.8 369.996 281.861 389.547 270.251 355.949C264.905 340.698 269.94 313.182 289.245 313.745C302.707 315.092 309.081 330.434 308.486 343.315L308.473 343.593Z" fill="#624F41"/>
<path d="M247.147 305.598C241.413 301.719 236.087 297.451 231.22 292.853C231.013 292.646 230.631 292.808 230.631 293.099C230.321 302.742 228.929 312.566 226.412 322.371C226.341 322.669 225.836 322.811 225.622 322.591C218.568 315.325 212.504 307.489 207.508 299.258C207.359 299.012 206.952 299.064 206.874 299.342C204.156 308.577 200.325 317.702 195.412 326.529C195.264 326.794 194.752 326.794 194.604 326.529C189.685 317.695 185.86 308.577 183.129 299.342C183.045 299.064 182.657 299.018 182.501 299.258C177.492 307.476 171.441 315.325 164.387 322.578C164.18 322.798 163.669 322.669 163.598 322.371C161.074 312.566 159.689 302.742 159.385 293.099C159.372 292.801 159.003 292.646 158.783 292.847C153.923 297.445 148.603 301.725 142.856 305.605C149.748 282.964 152.615 265.427 153.554 258.718C153.8 257.002 155.036 255.746 156.479 255.746H233.511C234.967 255.746 236.204 257.008 236.436 258.718C237.388 265.434 240.255 282.964 247.134 305.605L247.147 305.598Z" fill="#CBBC9F"/>
</svg>
