<svg width="398" height="398" viewBox="0 0 398 398" fill="none" xmlns="http://www.w3.org/2000/svg">
<path d="M199.003 380.538C151.622 380.538 106.808 362.363 72.8081 329.362C37.2853 294.87 17.7248 248.601 17.7248 199.083C17.7182 99.029 99.0394 17.6288 199.003 17.6288C298.967 17.6288 380.282 99.029 380.282 199.083C380.282 248.295 360.921 294.357 325.777 328.803C291.704 362.163 246.684 380.538 199.003 380.538Z" fill="#333333"/>
<path d="M376.424 124.054C366.727 101.093 352.84 80.4814 335.162 62.786C317.483 45.0906 296.899 31.1966 273.953 21.4835C250.202 11.4308 224.975 6.32454 198.99 6.32454C173.005 6.32454 147.778 11.4308 124.027 21.4835C101.088 31.19 80.4966 45.0906 62.8183 62.786C45.1401 80.4814 31.2595 101.086 21.5558 124.054C11.5128 147.828 6.41153 173.079 6.41153 199.09C6.41153 225.1 11.699 251.337 22.141 275.517C32.2239 298.851 46.6166 319.709 64.92 337.484C101.048 372.535 148.656 391.849 198.983 391.849C249.311 391.849 297.457 372.336 333.652 336.892C351.783 319.13 366.022 298.352 375.992 275.124C386.308 251.051 391.555 225.48 391.555 199.09C391.555 172.7 386.454 147.828 376.411 124.054H376.424ZM317.869 320.727C308.551 310.568 300.337 299.883 293.108 289.031C279.221 268.174 268.965 246.697 261.449 227.084C258.17 218.556 255.41 210.368 253.096 202.751C247.203 198.764 241.729 194.376 236.728 189.65C236.515 189.437 236.122 189.603 236.122 189.903C235.803 199.816 234.373 209.915 231.786 219.994C231.713 220.3 231.194 220.447 230.974 220.221C223.725 212.751 217.493 204.695 212.358 196.234C212.205 195.981 211.786 196.034 211.707 196.32C208.913 205.814 204.976 215.194 199.928 224.268C199.775 224.541 199.249 224.541 199.096 224.268C194.042 215.187 190.111 205.814 187.304 196.32C187.224 196.034 186.819 195.988 186.666 196.234C181.518 204.682 175.299 212.751 168.05 220.207C167.837 220.434 167.312 220.3 167.238 219.994C164.644 209.915 163.221 199.816 162.909 189.903C162.895 189.596 162.516 189.437 162.29 189.643C157.295 194.37 151.828 198.77 145.922 202.758C135.473 237.13 116.026 282.967 80.6628 321.26C48.8047 290.323 29.0115 247.023 29.0115 199.097C29.0115 105.121 105.112 28.9464 198.997 28.9464C292.882 28.9464 368.982 105.121 368.982 199.097C368.982 246.764 349.401 289.837 317.869 320.734V320.727Z" fill="#624F41"/>
<path d="M170.99 137.216C169.021 137.216 167.425 135.618 167.425 133.648C167.425 126.111 170.331 122.237 172.892 118.815C175.146 115.799 176.935 113.422 176.935 108.263C176.935 103.103 175.153 100.727 172.892 97.7108C170.331 94.2889 167.425 90.4143 167.425 82.8781C167.425 75.3419 170.331 71.4673 172.892 68.0454C175.146 65.0296 176.935 62.6529 176.935 57.4934C176.935 55.5228 178.532 53.925 180.5 53.925C182.469 53.925 184.065 55.5228 184.065 57.4934C184.065 65.0296 181.159 68.9042 178.598 72.3261C176.344 75.3419 174.554 77.7186 174.554 82.8781C174.554 88.0376 176.337 90.4143 178.598 93.4301C181.159 96.852 184.065 100.727 184.065 108.263C184.065 115.799 181.159 119.674 178.598 123.096C176.344 126.111 174.554 128.488 174.554 133.641C174.554 135.611 172.958 137.209 170.99 137.209V137.216Z" fill="#624F41"/>
<path d="M194.76 137.216C192.791 137.216 191.195 135.618 191.195 133.648C191.195 126.111 194.102 122.237 196.662 118.815C198.917 115.799 200.706 113.422 200.706 108.263C200.706 103.103 198.924 100.727 196.662 97.7108C194.102 94.2889 191.195 90.4143 191.195 82.8781C191.195 75.3419 194.102 71.4673 196.662 68.0454C198.917 65.0296 200.706 62.6529 200.706 57.4934C200.706 55.5228 202.302 53.925 204.271 53.925C206.24 53.925 207.836 55.5228 207.836 57.4934C207.836 65.0296 204.929 68.9042 202.369 72.3261C200.114 75.3419 198.325 77.7186 198.325 82.8781C198.325 88.0376 200.107 90.4143 202.369 93.4301C204.929 96.852 207.836 100.727 207.836 108.263C207.836 115.799 204.929 119.674 202.369 123.096C200.114 126.111 198.325 128.488 198.325 133.641C198.325 135.611 196.729 137.209 194.76 137.209V137.216Z" fill="#624F41"/>
<path d="M218.537 137.216C216.569 137.216 214.972 135.618 214.972 133.648C214.972 126.111 217.879 122.237 220.439 118.815C222.694 115.799 224.483 113.422 224.483 108.263C224.483 103.103 222.701 100.727 220.439 97.7108C217.879 94.2889 214.972 90.4143 214.972 82.8781C214.972 75.3419 217.879 71.4673 220.439 68.0454C222.694 65.0296 224.483 62.6529 224.483 57.4934C224.483 55.5228 226.079 53.925 228.048 53.925C230.017 53.925 231.613 55.5228 231.613 57.4934C231.613 65.0296 228.707 68.9042 226.146 72.3261C223.891 75.3419 222.102 77.7186 222.102 82.8781C222.102 88.0376 223.885 90.4143 226.146 93.4301C228.707 96.852 231.613 100.727 231.613 108.263C231.613 115.799 228.707 119.674 226.146 123.096C223.891 126.111 222.102 128.488 222.102 133.641C222.102 135.611 220.506 137.209 218.537 137.209V137.216Z" fill="#624F41"/>
<path d="M312.535 200.215C268.599 174.358 246.072 240.02 268.752 274.272C279.812 291.395 301.242 294.204 315.954 279.738C336.951 259.473 339.239 217.025 312.741 200.348L312.535 200.215ZM316.133 241.81C315.442 268.953 288.785 289.051 276.853 254.513C271.359 238.835 276.534 210.547 296.373 211.126C310.207 212.511 316.759 228.283 316.147 241.524L316.133 241.81Z" fill="#624F41"/>
<path d="M253.102 202.751C247.209 198.764 241.736 194.376 236.734 189.65C236.521 189.437 236.129 189.603 236.129 189.903C235.81 199.816 234.38 209.915 231.793 219.994C231.719 220.3 231.201 220.447 230.981 220.22C223.732 212.751 217.5 204.695 212.365 196.234C212.212 195.981 211.793 196.034 211.713 196.32C208.92 205.814 204.983 215.194 199.934 224.268C199.781 224.541 199.256 224.541 199.103 224.268C194.048 215.187 190.118 205.814 187.311 196.32C187.224 196.034 186.825 195.988 186.666 196.234C181.518 204.682 175.299 212.751 168.05 220.207C167.837 220.434 167.312 220.3 167.238 219.994C164.644 209.915 163.221 199.816 162.909 189.903C162.895 189.596 162.516 189.437 162.29 189.643C157.295 194.37 151.828 198.77 145.922 202.758C153.005 179.484 155.952 161.456 156.916 154.558C157.169 152.794 158.439 151.503 159.922 151.503H239.089C240.585 151.503 241.855 152.801 242.095 154.558C243.073 161.462 246.019 179.484 253.089 202.758L253.102 202.751Z" fill="#CBBC9F"/>
</svg>
